<svg xmlns="http://www.w3.org/2000/svg" width="106.184" height="106.182" viewBox="0 0 106.184 106.182"><g transform="translate(-860.519 -126.907)"><path d="M958.275,218.828V159.384a6.872,6.872,0,0,0-6.872-6.872H875.817a6.872,6.872,0,0,0-6.871,6.872h0v59.444Z" fill="#5b7fa0"/><path d="M951.4,152.512h-4.769a6.871,6.871,0,0,1,6.871,6.871v59.445h4.77V159.384A6.872,6.872,0,0,0,951.4,152.512Z" fill="#4a6f99"/><path d="M875.817,217.791V161.1a1.718,1.718,0,0,1,1.718-1.718h72.15A1.718,1.718,0,0,1,951.4,161.1h0V217.79H875.817Z" fill="#ffa666"/><path d="M949.686,159.384h-4.77a1.718,1.718,0,0,1,1.718,1.718h0V217.79h4.77V161.1a1.718,1.718,0,0,0-1.718-1.718Z" fill="#d88852"/><path d="M958.51,231.534h-89.8a6.636,6.636,0,0,1-6.636-6.637V219.45a1.659,1.659,0,0,1,1.659-1.659h99.753a1.659,1.659,0,0,1,1.659,1.659V224.9A6.636,6.636,0,0,1,958.51,231.534Z" fill="#e9efff"/><path d="M963.487,217.791h-4.77a1.659,1.659,0,0,1,1.659,1.659V224.9a6.636,6.636,0,0,1-6.636,6.637h4.77a6.636,6.636,0,0,0,6.636-6.637V219.45A1.659,1.659,0,0,0,963.487,217.791Z" fill="#d3dcfb"/><path d="M937.661,131.9a3.435,3.435,0,0,1,3.435,3.436h0v51.75a3.435,3.435,0,0,1-3.435,3.436h-48.1a3.436,3.436,0,0,1-3.436-3.436h0v-51.75a3.436,3.436,0,0,1,3.436-3.436h48.1Z" fill="#bf5000"/><path d="M923.918,138.769h8.589a1.718,1.718,0,0,1,1.718,1.718h0v41.444a1.718,1.718,0,0,1-1.718,1.717H894.714A1.718,1.718,0,0,1,893,181.931h0V140.487a1.718,1.718,0,0,1,1.718-1.718h29.2Z" fill="#e9efff"/><path d="M922.259,142.205h-17.3a1.659,1.659,0,0,1-1.659-1.659V130.121a1.659,1.659,0,0,1,1.659-1.659h17.3a1.659,1.659,0,0,1,1.659,1.659v10.425A1.659,1.659,0,0,1,922.259,142.205Z" fill="#ffc55e"/><path d="M937.661,131.9h-4.77a3.435,3.435,0,0,1,3.435,3.436h0v51.75a3.435,3.435,0,0,1-3.435,3.436h4.77a3.435,3.435,0,0,0,3.435-3.436h0v-51.75A3.435,3.435,0,0,0,937.661,131.9Z" fill="#993e00"/><path d="M922.259,128.462h-4.77a1.659,1.659,0,0,1,1.659,1.659v10.425a1.659,1.659,0,0,1-1.659,1.659h4.77a1.659,1.659,0,0,0,1.659-1.659V130.121A1.659,1.659,0,0,0,922.259,128.462Z" fill="#ffa438"/><path d="M932.507,138.769h-4.77a1.718,1.718,0,0,1,1.718,1.718h0v41.444a1.718,1.718,0,0,1-1.718,1.717h4.77a1.718,1.718,0,0,0,1.718-1.717h0V140.487A1.719,1.719,0,0,0,932.507,138.769Z" fill="#d3dcfb"/><path d="M963.487,216.235H959.83V159.384a8.436,8.436,0,0,0-8.427-8.427h-8.751V135.334a5,5,0,0,0-4.991-4.991H925.473v-.222a3.218,3.218,0,0,0-3.214-3.214h-17.3a3.218,3.218,0,0,0-3.214,3.214v.222H889.561a5,5,0,0,0-4.991,4.991v15.623h-8.752a8.436,8.436,0,0,0-8.427,8.427v56.851h-3.657a3.218,3.218,0,0,0-3.215,3.215V224.9a8.2,8.2,0,0,0,8.192,8.192h79.582a1.556,1.556,0,0,0,0-3.111H887.68V228.1a1.556,1.556,0,0,0-3.111,0v1.88h-3.76V228.1a1.556,1.556,0,0,0-3.111,0v1.88h-3.761V228.1a1.556,1.556,0,0,0-3.111,0v1.88h-2.115a5.086,5.086,0,0,1-5.081-5.081V219.45a.1.1,0,0,1,.1-.1h38.014v3.6a3.277,3.277,0,0,0,3.273,3.274H922.2a3.277,3.277,0,0,0,3.273-3.274v-3.6h38.014a.1.1,0,0,1,.1.1V224.9a5.086,5.086,0,0,1-5.081,5.081H954.6a1.556,1.556,0,0,0,0,3.111h3.906A8.2,8.2,0,0,0,966.7,224.9V219.45a3.218,3.218,0,0,0-3.215-3.215ZM951.4,154.068a5.321,5.321,0,0,1,5.316,5.316v56.851h-3.76V161.1a3.276,3.276,0,0,0-3.273-3.273h-7.034v-3.761Zm-46.44-10.308h17.3a3.217,3.217,0,0,0,3.214-3.214v-.221h7.034a.163.163,0,0,1,.163.162v41.444a.163.163,0,0,1-.163.162H894.714a.162.162,0,0,1-.162-.162V140.487a.162.162,0,0,1,.162-.162h7.034v.221a3.217,3.217,0,0,0,3.214,3.214Zm-.1-13.639a.1.1,0,0,1,.1-.1h7.092v1.88a1.556,1.556,0,0,0,3.111,0v-1.88h7.093a.1.1,0,0,1,.1.1v10.425a.1.1,0,0,1-.1.1h-17.3a.1.1,0,0,1-.1-.1Zm-15.3,3.333h12.187v3.76h-7.034a3.276,3.276,0,0,0-3.273,3.273v41.444a3.277,3.277,0,0,0,3.273,3.273h37.793a3.276,3.276,0,0,0,3.273-3.273V140.487a3.276,3.276,0,0,0-3.273-3.273h-7.034v-3.76h12.188a1.882,1.882,0,0,1,1.88,1.88v51.75a1.882,1.882,0,0,1-1.88,1.88h-48.1a1.883,1.883,0,0,1-1.881-1.88v-51.75A1.883,1.883,0,0,1,889.561,133.454ZM870.5,159.384a5.321,5.321,0,0,1,5.315-5.316h8.752v3.761h-7.034a3.276,3.276,0,0,0-3.273,3.273v10.414a1.555,1.555,0,1,0,3.111,0h0V161.1a.163.163,0,0,1,.162-.163h7.034v26.145a5,5,0,0,0,4.992,4.991h48.1a5,5,0,0,0,4.991-4.991V160.939h7.034a.163.163,0,0,1,.162.163v55.133H877.373v-38.28a1.555,1.555,0,0,0-3.111,0v38.28H870.5Zm51.86,63.56a.163.163,0,0,1-.162.163H905.021a.162.162,0,0,1-.162-.163v-3.6h17.5v3.6Z"/><path d="M906.247,172.992a1.555,1.555,0,0,0,1.967-.981v0l1.936-5.808h6.919l1.936,5.808a1.555,1.555,0,1,0,2.958-.962l-.007-.022-2.279-6.839,0-.009-4.589-13.766a1.556,1.556,0,0,0-2.951,0l-4.589,13.768,0,.006-2.28,6.84A1.555,1.555,0,0,0,906.247,172.992Zm7.363-17.172,2.423,7.269h-4.845Z"/></g></svg>