<svg xmlns="http://www.w3.org/2000/svg" width="96.392" height="119.615" viewBox="0 0 96.392 119.615"><g transform="translate(-133.233 -84.019)"><path d="M138.854,147.7a3.87,3.87,0,0,0-3.87,3.871h0v46.444a3.869,3.869,0,0,0,3.87,3.87H224a3.87,3.87,0,0,0,3.871-3.87h0V151.567A3.871,3.871,0,0,0,224,147.7H138.854Z" fill="#ff6b00"/><path d="M216.262,139.955H189.169a7.741,7.741,0,0,0-7.741,7.741h0a7.74,7.74,0,0,0-7.74-7.741H146.6a3.871,3.871,0,0,0-3.869,3.871V186.4l38.7,7.741,38.7-7.741V143.826a3.871,3.871,0,0,0-3.87-3.871Z" fill="#e9efff"/><path d="M166.013,155.437H158.14a1.869,1.869,0,0,1-1.869-1.869v-4a1.869,1.869,0,0,1,1.869-1.869h7.873a1.869,1.869,0,0,1,1.869,1.869v4a1.869,1.869,0,0,1-1.869,1.869Z" fill="#77dfff"/><path d="M204.717,155.437h-7.873a1.869,1.869,0,0,1-1.869-1.869v-4a1.869,1.869,0,0,1,1.869-1.869h7.873a1.869,1.869,0,0,1,1.869,1.869v4a1.869,1.869,0,0,1-1.869,1.869Z" fill="#77dfff"/><path d="M224,147.7H218.63a3.87,3.87,0,0,1,3.87,3.871h0v46.444a3.869,3.869,0,0,1-3.87,3.87H224a3.87,3.87,0,0,0,3.871-3.87h0V151.567A3.871,3.871,0,0,0,224,147.7Z" fill="#c14e00"/><path d="M216.262,139.955h-5.374a3.871,3.871,0,0,1,3.871,3.871h0v43.649l5.373-1.075V143.826a3.871,3.871,0,0,0-3.87-3.871Z" fill="#d3dcfb"/><path d="M181.428,194.141a7.741,7.741,0,0,1,7.741-7.741h30.963v3.87a3.871,3.871,0,0,1-3.87,3.871H181.428Z" fill="#bec8f7"/><path d="M214.759,186.4v3.87a3.871,3.871,0,0,1-3.871,3.871h5.374a3.871,3.871,0,0,0,3.87-3.871h0V186.4Z" fill="#a2b6f4"/><path d="M173.688,139.955h-5.374a7.741,7.741,0,0,1,7.741,7.741h0v45.37l5.373,1.075V147.7a7.741,7.741,0,0,0-7.741-7.741Z" fill="#d3dcfb"/><path d="M181.428,194.141a7.74,7.74,0,0,0-7.74-7.741H142.726v3.87a3.871,3.871,0,0,0,3.869,3.871Z" fill="#bec8f7"/><path d="M176.055,194.141h5.373a7.741,7.741,0,0,0-7.741-7.741h-5.373a7.74,7.74,0,0,1,7.741,7.74Z" fill="#a2b6f4"/><path d="M204.717,147.7h-5.374a1.869,1.869,0,0,1,1.869,1.869v4a1.869,1.869,0,0,1-1.869,1.869h5.374a1.869,1.869,0,0,0,1.869-1.869v-4A1.869,1.869,0,0,0,204.717,147.7Z" fill="#69cdff"/><path d="M166.013,147.7H160.64a1.869,1.869,0,0,1,1.869,1.869v4a1.869,1.869,0,0,1-1.869,1.869h5.373a1.869,1.869,0,0,0,1.869-1.869v-4A1.869,1.869,0,0,0,166.013,147.7Z" fill="#69cdff"/><path d="M200.8,105.175a19.352,19.352,0,1,0-29.043,16.749,3.859,3.859,0,0,1,1.95,3.331v4.311H189.19v-4.281a3.91,3.91,0,0,1,1.97-3.372A19.34,19.34,0,0,0,200.8,105.175Z" fill="#ffc55e"/><path d="M181.1,85.826a19.722,19.722,0,0,0-2.327.185,19.351,19.351,0,0,1,7.016,35.9,3.913,3.913,0,0,0-1.971,3.372v4.281h5.374v-4.281a3.91,3.91,0,0,1,1.97-3.372A19.351,19.351,0,0,0,181.1,85.826Z" fill="#ffa438"/><path d="M185.452,143.879h-8.006a3.739,3.739,0,0,1-3.738-3.738V135.2H189.19v4.937A3.739,3.739,0,0,1,185.452,143.879Z" fill="#bec8f7"/><path d="M183.816,135.2v4.937a3.737,3.737,0,0,1-3.738,3.738h5.374a3.738,3.738,0,0,0,3.738-3.738V135.2Z" fill="#a2b6f4"/><path d="M189.19,136.138a3.87,3.87,0,0,0,0-7.741H173.708a3.87,3.87,0,0,0,0,7.741Z" fill="#e9efff"/><path d="M189.19,128.4h-5.374a3.87,3.87,0,1,1,0,7.741h5.374a3.87,3.87,0,0,0,0-7.741Z" fill="#d3dcfb"/><path d="M224,145.944h-2.118v-2.118a5.63,5.63,0,0,0-5.622-5.623H190.921v-.646a5.621,5.621,0,0,0,0-10.683v-1.642a2.17,2.17,0,0,1,1.1-1.857,21.127,21.127,0,0,0,9.57-24.507,1.752,1.752,0,1,0-3.355,1.012l.007.025a17.623,17.623,0,0,1-7.983,20.44,5.686,5.686,0,0,0-2.842,4.886v1.361H183.18V114.615H185.3a1.752,1.752,0,1,0,0-3.5h-7.74a1.752,1.752,0,1,0,0,3.5h2.118v11.977H175.44V125.2a5.638,5.638,0,0,0-2.825-4.847,17.6,17.6,0,1,1,22.406-26.413,1.752,1.752,0,1,0,2.705-2.228h0a21.011,21.011,0,0,0-16.3-7.695c-.127,0-.255,0-.383,0a21.1,21.1,0,0,0-10.188,39.365,2.121,2.121,0,0,1,1.077,1.815v1.671a5.621,5.621,0,0,0,0,10.683v.647H146.6a5.63,5.63,0,0,0-5.622,5.621v2.119h-2.118a5.628,5.628,0,0,0-5.622,5.622v46.445a5.629,5.629,0,0,0,5.622,5.623h19.718a1.753,1.753,0,0,0,0-3.505H138.855a2.121,2.121,0,0,1-2.118-2.118V151.567a2.12,2.12,0,0,1,2.118-2.118h2.118V190.27a5.63,5.63,0,0,0,5.622,5.623h69.667a5.629,5.629,0,0,0,5.622-5.623V149.448H224a2.121,2.121,0,0,1,2.118,2.118v46.445A2.12,2.12,0,0,1,224,200.129H165.581a1.752,1.752,0,1,0,0,3.5H224a5.629,5.629,0,0,0,5.623-5.622V151.566A5.629,5.629,0,0,0,224,145.944Zm-5.622-2.118v40.821H189.169a9.458,9.458,0,0,0-5.989,2.134V147.7a6.01,6.01,0,0,1,.389-2.118h1.862a5.5,5.5,0,0,0,5.246-3.871h25.585A2.121,2.121,0,0,1,218.38,143.826Zm-42.94-5.989h11.977v2.251a1.99,1.99,0,0,1-1.986,1.986h-8.005a1.988,1.988,0,0,1-1.986-1.986Zm-1.752-7.741h15.481a2.118,2.118,0,0,1,0,4.237H173.688a2.118,2.118,0,1,1,0-4.237Zm-29.21,13.73a2.121,2.121,0,0,1,2.118-2.119H172.18a5.5,5.5,0,0,0,5.246,3.871h1.862a6.01,6.01,0,0,1,.389,2.118v39.085a9.458,9.458,0,0,0-5.989-2.134h-29.21Zm2.117,48.562a2.12,2.12,0,0,1-2.118-2.118v-2.118h29.211a6,6,0,0,1,5.727,4.236Zm71.785-2.118a2.12,2.12,0,0,1-2.118,2.118h-32.82a6,6,0,0,1,5.728-4.236h29.21v2.118Z"/><path d="M158.14,157.189h7.873a3.625,3.625,0,0,0,3.621-3.621v-4a3.625,3.625,0,0,0-3.621-3.621H158.14a3.626,3.626,0,0,0-3.622,3.621v4A3.626,3.626,0,0,0,158.14,157.189Zm-.117-7.624a.117.117,0,0,1,.117-.117h7.873a.118.118,0,0,1,.117.117v4a.118.118,0,0,1-.117.117H158.14a.117.117,0,0,1-.117-.117Z"/><path d="M150.465,164.93h23.223a1.752,1.752,0,0,0,0-3.5H150.465a1.752,1.752,0,0,0,0,3.5Z"/><path d="M150.465,172.671h23.223a1.753,1.753,0,0,0,0-3.505H150.465a1.753,1.753,0,0,0,0,3.505Z"/><path d="M150.465,180.411h23.223a1.752,1.752,0,0,0,0-3.5H150.465a1.752,1.752,0,1,0,0,3.5Z"/><path d="M196.843,157.189h7.874a3.625,3.625,0,0,0,3.621-3.621v-4a3.625,3.625,0,0,0-3.621-3.621h-7.874a3.625,3.625,0,0,0-3.621,3.621v4A3.625,3.625,0,0,0,196.843,157.189Zm-.116-7.624a.117.117,0,0,1,.116-.117h7.874a.117.117,0,0,1,.116.117v4a.117.117,0,0,1-.116.117h-7.874a.117.117,0,0,1-.116-.117Z"/><path d="M187.418,163.177a1.752,1.752,0,0,0,1.752,1.753h23.222a1.752,1.752,0,0,0,0-3.5H189.17A1.752,1.752,0,0,0,187.418,163.177Z"/><path d="M212.392,169.166H189.17a1.753,1.753,0,0,0,0,3.505h23.222a1.753,1.753,0,0,0,0-3.505Z"/><path d="M212.392,176.907H189.17a1.752,1.752,0,0,0,0,3.5h23.222a1.752,1.752,0,1,0,0-3.5Z"/><path d="M210.6,105.122a1.752,1.752,0,0,0,1.753,1.752h7.74a1.752,1.752,0,1,0,0-3.5h-7.74A1.752,1.752,0,0,0,210.6,105.122Z"/><path d="M209.612,94.129a1.739,1.739,0,0,0,1.238-.514l5.474-5.473a1.752,1.752,0,0,0-2.478-2.478l-5.472,5.474a1.753,1.753,0,0,0,1.238,2.991Z"/><path d="M213.848,124.579a1.752,1.752,0,1,0,2.478-2.478l-5.474-5.473a1.752,1.752,0,0,0-2.478,2.477Z"/><path d="M142.766,106.874h7.741a1.752,1.752,0,1,0,0-3.5h-7.741a1.752,1.752,0,1,0,0,3.5Z"/><path d="M152,116.628l-5.473,5.473a1.753,1.753,0,0,0,2.479,2.479h0l5.474-5.474a1.753,1.753,0,1,0-2.479-2.478Z"/><path d="M152,93.616a1.753,1.753,0,0,0,2.479-2.478l-5.474-5.473a1.752,1.752,0,0,0-2.478,2.478Z"/></g></svg>