<svg xmlns="http://www.w3.org/2000/svg" width="103.239" height="103.239" viewBox="0 0 103.239 103.239"><g transform="translate(-410.837 -99.947)"><path d="M419.03,108.14a6.681,6.681,0,0,0-6.681,6.681h0V174.95a6.681,6.681,0,0,0,6.681,6.68h86.852a6.679,6.679,0,0,0,6.681-6.68h0V114.821a6.681,6.681,0,0,0-6.68-6.681Z" fill="#5b7fa0"/><path d="M505.882,108.14h-4.638a6.682,6.682,0,0,1,6.682,6.681h0V174.95a6.681,6.681,0,0,1-6.681,6.68h4.638a6.68,6.68,0,0,0,6.68-6.68V114.821a6.681,6.681,0,0,0-6.68-6.681Z" fill="#4a6f99"/><path d="M476.653,194.992l-1.67-13.361V180H449.929v1.633l-1.67,13.361v1.876h28.394Z" fill="#bec8f7"/><path d="M419.03,168.269V116.492a1.67,1.67,0,0,1,1.67-1.67h83.512a1.67,1.67,0,0,1,1.671,1.67h0v51.777Z" fill="#ffa666"/><path d="M495.861,168.269H429.052V104.686a3.226,3.226,0,0,1,3.226-3.227h60.357a3.226,3.226,0,0,1,3.226,3.227v63.583Z" fill="#e9efff"/><path d="M504.212,114.821h-4.637a1.67,1.67,0,0,1,1.67,1.67h0v51.778h4.638V116.492a1.671,1.671,0,0,0-1.67-1.671Z" fill="#d88852"/><path d="M484.227,194.992H440.686a1.614,1.614,0,0,0-1.613,1.614v3.454a1.613,1.613,0,0,0,1.613,1.613h43.541a1.613,1.613,0,0,0,1.613-1.613v-3.454A1.614,1.614,0,0,0,484.227,194.992Z" fill="#e9efff"/><path d="M484.227,194.992h-4.638a1.614,1.614,0,0,1,1.613,1.614v3.454a1.613,1.613,0,0,1-1.613,1.613h4.638a1.613,1.613,0,0,0,1.613-1.613v-3.454A1.614,1.614,0,0,0,484.227,194.992Z" fill="#d3dcfb"/><path d="M492.635,101.459H488a3.226,3.226,0,0,1,3.226,3.227v63.583h4.638V104.686A3.227,3.227,0,0,0,492.635,101.459Z" fill="#d3dcfb"/><path d="M512.563,174.95v-6.681H412.349v6.681a6.681,6.681,0,0,0,6.681,6.68h86.852a6.679,6.679,0,0,0,6.681-6.679Z" fill="#e9efff"/><path d="M507.926,174.95a6.681,6.681,0,0,1-6.681,6.68h4.638a6.68,6.68,0,0,0,6.68-6.68v-6.681h-4.637Z" fill="#d3dcfb"/><path d="M429.052,111.481h66.809v56.788H429.052Z" fill="#ffc55e"/><path d="M487.567,134.864H437.346a1.613,1.613,0,0,1-1.613-1.613V119.775a1.613,1.613,0,0,1,1.613-1.613h50.221a1.613,1.613,0,0,1,1.613,1.613v13.476A1.613,1.613,0,0,1,487.567,134.864Z" fill="#e9efff"/><path d="M487.567,118.162h-4.638a1.613,1.613,0,0,1,1.613,1.613v13.476a1.613,1.613,0,0,1-1.613,1.613h4.638a1.613,1.613,0,0,0,1.613-1.613V119.775A1.613,1.613,0,0,0,487.567,118.162Z" fill="#d3dcfb"/><path d="M440.8,148.226h-3.454a1.613,1.613,0,0,1-1.613-1.613v-3.455a1.613,1.613,0,0,1,1.613-1.613H440.8a1.613,1.613,0,0,1,1.613,1.613v3.455A1.613,1.613,0,0,1,440.8,148.226Z" fill="#e9efff"/><path d="M440.8,161.588h-3.454a1.613,1.613,0,0,1-1.613-1.613V156.52a1.613,1.613,0,0,1,1.613-1.613H440.8a1.613,1.613,0,0,1,1.613,1.613v3.455A1.613,1.613,0,0,1,440.8,161.588Z" fill="#e9efff"/><path d="M470.865,148.226H467.41a1.613,1.613,0,0,1-1.613-1.613v-3.455a1.613,1.613,0,0,1,1.613-1.613h3.455a1.613,1.613,0,0,1,1.613,1.613v3.455A1.613,1.613,0,0,1,470.865,148.226Z" fill="#e9efff"/><path d="M470.865,161.588H467.41a1.613,1.613,0,0,1-1.613-1.613V156.52a1.613,1.613,0,0,1,1.613-1.613h3.455a1.613,1.613,0,0,1,1.613,1.613v3.455A1.614,1.614,0,0,1,470.865,161.588Z" fill="#e9efff"/><path d="M491.223,111.481h4.638v56.788h-4.638Z" fill="#ffa438"/><path d="M514.076,168.269V137.86a1.512,1.512,0,0,0-3.025,0v28.9h-3.656V116.492a3.187,3.187,0,0,0-3.183-3.183h-6.839v-3.656h8.509a5.174,5.174,0,0,1,5.169,5.168v17.018a1.512,1.512,0,1,0,3.025,0V114.821a8.2,8.2,0,0,0-8.193-8.193h-8.509v-1.942a4.744,4.744,0,0,0-4.739-4.739H432.278a4.744,4.744,0,0,0-4.739,4.739v1.942H419.03a8.2,8.2,0,0,0-8.193,8.193V174.95a8.2,8.2,0,0,0,8.193,8.193h7a1.513,1.513,0,0,0,0-3.025h-7a5.175,5.175,0,0,1-5.169-5.168v-5.169h97.19v5.169a5.173,5.173,0,0,1-5.168,5.168H432.076a1.513,1.513,0,0,0,0,3.025h16.14l-1.292,10.337h-7.851a1.512,1.512,0,0,0-1.512,1.512v6.682a1.512,1.512,0,0,0,1.512,1.512H485.84a1.512,1.512,0,0,0,1.512-1.512v-6.682a1.512,1.512,0,0,0-1.512-1.512h-7.852L476.7,183.143h29.186a8.2,8.2,0,0,0,8.194-8.193v-6.682Zm-9.864-51.936a.159.159,0,0,1,.158.158v50.266h-7V116.333Zm-73.648-11.647a1.715,1.715,0,0,1,1.714-1.714h60.357a1.716,1.716,0,0,1,1.714,1.714v5.283H430.564Zm-3.025,62.071h-7V116.492a.158.158,0,0,1,.158-.158h6.839Zm-13.678-51.936a5.175,5.175,0,0,1,5.169-5.168h8.509v3.656H420.7a3.185,3.185,0,0,0-3.182,3.182v50.266h-3.657Zm16.7,51.936V112.993h63.785v53.764Zm30.064,16.386h3.656V186.8h-3.656Zm23.7,17.018H440.585v-3.656h43.742Zm-9.386-6.681H449.972l1.292-10.337h6.34v5.168a1.512,1.512,0,0,0,1.512,1.512H465.8a1.512,1.512,0,0,0,1.512-1.512h0v-5.168h6.339Z"/><path d="M435.733,107.982h1.67a1.512,1.512,0,0,0,0-3.024h-1.67a1.512,1.512,0,1,0,0,3.024Z"/><path d="M444.084,107.982h1.67a1.512,1.512,0,0,0,0-3.024h-1.67a1.512,1.512,0,1,0,0,3.024Z"/><path d="M452.435,107.982h1.67a1.512,1.512,0,0,0,0-3.024h-1.67a1.512,1.512,0,0,0,0,3.024Z"/><path d="M487.567,116.649H437.346a3.129,3.129,0,0,0-3.126,3.126v13.476a3.129,3.129,0,0,0,3.126,3.125h50.221a3.129,3.129,0,0,0,3.125-3.125V119.775A3.129,3.129,0,0,0,487.567,116.649Zm.1,16.6a.1.1,0,0,1-.1.1H437.346a.1.1,0,0,1-.1-.1V119.775a.1.1,0,0,1,.1-.1h50.221a.1.1,0,0,1,.1.1Z"/><path d="M440.8,140.033h-3.454a3.129,3.129,0,0,0-3.126,3.125v3.455a3.129,3.129,0,0,0,3.126,3.125H440.8a3.129,3.129,0,0,0,3.126-3.125v-3.455A3.129,3.129,0,0,0,440.8,140.033Zm.1,6.58a.1.1,0,0,1-.1.1h-3.454a.1.1,0,0,1-.1-.1v-3.455a.1.1,0,0,1,.1-.1H440.8a.1.1,0,0,1,.1.1Z"/><path d="M440.8,153.4h-3.454a3.128,3.128,0,0,0-3.126,3.125v3.455a3.129,3.129,0,0,0,3.126,3.125H440.8a3.129,3.129,0,0,0,3.126-3.125V156.52A3.128,3.128,0,0,0,440.8,153.4Zm.1,6.58a.1.1,0,0,1-.1.1h-3.454a.1.1,0,0,1-.1-.1V156.52a.1.1,0,0,1,.1-.1H440.8a.1.1,0,0,1,.1.1Z"/><path d="M470.865,140.033H467.41a3.128,3.128,0,0,0-3.125,3.125v3.455a3.128,3.128,0,0,0,3.125,3.125h3.455a3.129,3.129,0,0,0,3.125-3.125v-3.455A3.129,3.129,0,0,0,470.865,140.033Zm.1,6.58a.1.1,0,0,1-.1.1H467.41a.1.1,0,0,1-.1-.1v-3.455a.1.1,0,0,1,.1-.1h3.455a.1.1,0,0,1,.1.1Z"/><path d="M470.865,153.4H467.41a3.127,3.127,0,0,0-3.125,3.125v3.455a3.128,3.128,0,0,0,3.125,3.125h3.455a3.129,3.129,0,0,0,3.125-3.125V156.52A3.128,3.128,0,0,0,470.865,153.4Zm.1,6.58a.1.1,0,0,1-.1.1H467.41a.1.1,0,0,1-.1-.1V156.52a.1.1,0,0,1,.1-.1h3.455a.1.1,0,0,1,.1.1Z"/><path d="M449.094,143.057h6.681a1.512,1.512,0,0,0,0-3.024h-6.681a1.512,1.512,0,0,0,0,3.024Z"/><path d="M459.116,146.714H449.1a1.512,1.512,0,1,0,0,3.024h10.021a1.512,1.512,0,0,0,0-3.024Z"/><path d="M449.094,156.419h6.681a1.512,1.512,0,0,0,0-3.024h-6.681a1.512,1.512,0,0,0,0,3.024Z"/><path d="M459.116,160.075H449.1a1.513,1.513,0,1,0,0,3.025h10.021a1.513,1.513,0,0,0,0-3.025Z"/><path d="M479.159,143.057h6.68a1.512,1.512,0,1,0,0-3.024h-6.68a1.512,1.512,0,1,0,0,3.024Z"/><path d="M489.18,146.714H479.159a1.512,1.512,0,1,0,0,3.024H489.18a1.512,1.512,0,0,0,0-3.024Z"/><path d="M479.159,156.419h6.68a1.512,1.512,0,1,0,0-3.024h-6.68a1.512,1.512,0,1,0,0,3.024Z"/><path d="M489.18,160.075H479.159a1.513,1.513,0,1,0,0,3.025H489.18a1.513,1.513,0,0,0,0-3.025Z"/><path d="M455.775,123.33H442.413a1.513,1.513,0,0,0,0,3.025h13.362a1.513,1.513,0,1,0,0-3.025Z"/><path d="M469.137,123.33h-6.681a1.513,1.513,0,0,0,0,3.025h6.681a1.513,1.513,0,0,0,0-3.025Z"/><path d="M482.5,123.33h-6.681a1.513,1.513,0,0,0,0,3.025H482.5a1.513,1.513,0,0,0,0-3.025Z"/></g></svg>