<svg xmlns="http://www.w3.org/2000/svg" width="106.183" height="106.182" viewBox="0 0 106.183 106.182"><g transform="translate(-734.835 -89.966)"><path d="M832.8,181.887V122.443a6.872,6.872,0,0,0-6.872-6.871H750.34a6.871,6.871,0,0,0-6.87,6.871v59.444Z" fill="#5b7fa0"/><path d="M825.927,115.571h-4.77a6.872,6.872,0,0,1,6.871,6.872v59.444h4.77V122.443A6.872,6.872,0,0,0,825.927,115.571Z" fill="#4a6f99"/><path d="M750.34,180.85V124.161a1.718,1.718,0,0,1,1.718-1.718h72.15a1.718,1.718,0,0,1,1.718,1.718h0V180.85Z" fill="#ffa666"/><path d="M824.209,122.443h-4.77a1.718,1.718,0,0,1,1.718,1.718h0V180.85h4.77V124.161a1.718,1.718,0,0,0-1.717-1.718Z" fill="#d88852"/><path d="M833.033,194.593h-89.8a6.636,6.636,0,0,1-6.636-6.636v-5.448a1.659,1.659,0,0,1,1.659-1.659H838.01a1.66,1.66,0,0,1,1.66,1.659v5.448A6.637,6.637,0,0,1,833.033,194.593Z" fill="#e9efff"/><path d="M838.01,180.85h-4.769a1.659,1.659,0,0,1,1.659,1.659v5.448a6.637,6.637,0,0,1-6.637,6.636h4.77a6.637,6.637,0,0,0,6.637-6.636v-5.448A1.66,1.66,0,0,0,838.01,180.85Z" fill="#d3dcfb"/><path d="M784.705,137.665h6.872v10.784h-6.872Z" fill="#ffa438"/><path d="M805.32,122.443a17.178,17.178,0,1,1-34.357,0V97.356H805.32v25.087Z" fill="#ffc55e"/><path d="M800.166,161.273h-24.05V148.152a1.659,1.659,0,0,1,1.659-1.659h20.732a1.659,1.659,0,0,1,1.659,1.659Z" fill="#5b7fa0"/><path d="M798.507,146.493h-4.77a1.659,1.659,0,0,1,1.659,1.659v13.121h4.77V148.152A1.659,1.659,0,0,0,798.507,146.493Z" fill="#4a6f99"/><path d="M801.943,167.107h-27.6a1.659,1.659,0,0,1-1.659-1.659V161.9a1.659,1.659,0,0,1,1.659-1.659h27.6A1.659,1.659,0,0,1,803.6,161.9v3.553A1.659,1.659,0,0,1,801.943,167.107Z" fill="#ffc55e"/><path d="M801.943,160.236h-4.77a1.659,1.659,0,0,1,1.659,1.659v3.553a1.659,1.659,0,0,1-1.659,1.659h4.77a1.659,1.659,0,0,0,1.659-1.659V161.9A1.659,1.659,0,0,0,801.943,160.236Z" fill="#ffa438"/><path d="M800.55,97.356v25.087a17.179,17.179,0,0,1-14.794,17.01,17.166,17.166,0,0,0,19.564-17.01V97.356Z" fill="#ffa438"/><path d="M807.1,98.393h-37.91a1.659,1.659,0,0,1-1.659-1.659V93.181a1.659,1.659,0,0,1,1.659-1.659H807.1a1.658,1.658,0,0,1,1.659,1.659v3.553A1.659,1.659,0,0,1,807.1,98.393Z" fill="#ffc55e"/><path d="M807.1,91.522h-4.777a1.659,1.659,0,0,1,1.659,1.659v3.553a1.659,1.659,0,0,1-1.659,1.659H807.1a1.66,1.66,0,0,0,1.66-1.659V93.181a1.659,1.659,0,0,0-1.66-1.659Z" fill="#ffa438"/><path d="M789.414,108.279l.781,1.581a1.657,1.657,0,0,0,1.25.907l1.745.254a1.659,1.659,0,0,1,.919,2.83l-1.262,1.231a1.656,1.656,0,0,0-.477,1.468l.3,1.738a1.659,1.659,0,0,1-2.408,1.749l-1.56-.82a1.654,1.654,0,0,0-1.544,0l-1.561.82a1.659,1.659,0,0,1-2.408-1.749l.3-1.738a1.656,1.656,0,0,0-.477-1.468l-1.262-1.231a1.659,1.659,0,0,1,.919-2.83l1.745-.254a1.656,1.656,0,0,0,1.249-.907l.781-1.582a1.66,1.66,0,0,1,2.976,0Z" fill="#ff6b00"/><path d="M837.8,179.295h-3.657V122.443a8.437,8.437,0,0,0-8.427-8.427h-8.538v-7.034a3.276,3.276,0,0,0-3.273-3.273h-7.033V99.948h.221a3.218,3.218,0,0,0,3.215-3.214V93.181a3.218,3.218,0,0,0-3.215-3.215h-37.91a3.218,3.218,0,0,0-3.214,3.215v3.553a3.218,3.218,0,0,0,3.214,3.214h.221v3.761h-7.034a3.276,3.276,0,0,0-3.273,3.273v7.034h-8.967a8.436,8.436,0,0,0-8.426,8.427v56.852H738.05a3.218,3.218,0,0,0-3.215,3.214v5.448a8.2,8.2,0,0,0,8.192,8.191h79.989a1.555,1.555,0,1,0,0-3.11H762v-1.881a1.555,1.555,0,0,0-3.111,0v1.881h-3.76v-1.881a1.556,1.556,0,0,0-3.111,0v1.881h-3.761v-1.881a1.555,1.555,0,0,0-3.111,0v1.881h-2.115a5.087,5.087,0,0,1-5.081-5.081v-5.448a.1.1,0,0,1,.1-.1h38.014V186a3.276,3.276,0,0,0,3.273,3.273h17.179A3.276,3.276,0,0,0,799.789,186v-3.6H837.8a.1.1,0,0,1,.1.1v5.448a5.087,5.087,0,0,1-5.081,5.081h-3.788a1.555,1.555,0,1,0,0,3.11h3.788a8.2,8.2,0,0,0,8.192-8.191v-5.448A3.218,3.218,0,0,0,837.8,179.295Zm-6.768-56.852v56.852h-3.76V124.161A3.276,3.276,0,0,0,824,120.888h-8.714a8.4,8.4,0,0,0,1.748-3.761h8.683A5.322,5.322,0,0,1,831.035,122.443Zm-22.28-1.555h-1.88v-3.761h6.963a5.324,5.324,0,0,1-5.083,3.761Zm5.154-14.068a.163.163,0,0,1,.162.162v7.034h-7.2v-7.2ZM769.082,96.734V93.181a.1.1,0,0,1,.1-.1H807.1a.1.1,0,0,1,.1.1v3.553a.1.1,0,0,1-.1.1h-37.91a.1.1,0,0,1-.1-.1Zm34.682,3.214v22.5a15.623,15.623,0,0,1-31.246,0v-22.5Zm-27.648,61.843h25.827a.1.1,0,0,1,.1.1v3.553a.1.1,0,0,1-.1.1h-27.6a.1.1,0,0,1-.1-.1V161.9a.1.1,0,0,1,.1-.1Zm22.495-3.111H777.672V148.152a.1.1,0,0,1,.1-.1h20.732a.1.1,0,0,1,.1.1V158.68Zm-12.35-13.742v-3.855q.927.093,1.88.094a18.248,18.248,0,0,0,1.88-.094v3.855Zm-16.854-24.05h-1.88a5.327,5.327,0,0,1-5.084-3.761h6.964v3.761Zm-7.2-13.906a.163.163,0,0,1,.162-.162h7.034v7.2h-7.2Zm-17.393,15.461a5.322,5.322,0,0,1,5.315-5.316h9.113a8.4,8.4,0,0,0,1.748,3.761h-9.143a3.276,3.276,0,0,0-3.273,3.273v10.632a1.555,1.555,0,1,0,3.11,0V124.161a.163.163,0,0,1,.163-.162h17.621a18.776,18.776,0,0,0,13.678,16.5v4.437h-5.375a3.218,3.218,0,0,0-3.214,3.214v10.529h-.221a3.218,3.218,0,0,0-3.215,3.214v3.553a3.218,3.218,0,0,0,3.215,3.215h27.6a3.218,3.218,0,0,0,3.214-3.215V161.9a3.218,3.218,0,0,0-3.214-3.214h-.221V148.152a3.218,3.218,0,0,0-3.215-3.214h-5.375V140.5A18.776,18.776,0,0,0,806.81,124H824a.163.163,0,0,1,.162.163v55.134H751.688V141.014a1.555,1.555,0,1,0-3.11,0v38.281h-3.76ZM796.678,186a.163.163,0,0,1-.162.162H779.337a.163.163,0,0,1-.163-.162v-3.6h17.5V186Z"/><path d="M789.859,151.809h-3.436a1.555,1.555,0,0,0,0,3.111h3.436a1.555,1.555,0,0,0,0-3.111Z"/><path d="M781.961,116.234l-.876,5.106a1.556,1.556,0,0,0,2.257,1.639l4.584-2.41,4.585,2.41a1.556,1.556,0,0,0,2.257-1.639l-.876-5.106,3.709-3.615a1.555,1.555,0,0,0-.862-2.653l-5.126-.745-2.292-4.645a1.555,1.555,0,0,0-2.79,0l-2.292,4.645-5.126.745a1.555,1.555,0,0,0-.862,2.653Zm3.535-4.052a1.558,1.558,0,0,0,1.171-.851l1.259-2.551,1.26,2.551a1.558,1.558,0,0,0,1.171.851l2.816.409-2.037,1.986a1.558,1.558,0,0,0-.448,1.377l.481,2.805-2.519-1.324a1.55,1.55,0,0,0-1.447,0l-2.519,1.324.481-2.805a1.558,1.558,0,0,0-.448-1.377l-2.037-1.986Z"/></g></svg>