<svg xmlns="http://www.w3.org/2000/svg" xmlns:xlink="http://www.w3.org/1999/xlink" width="330.805" height="294.995" viewBox="0 0 330.805 294.995"><defs><clipPath id="a"><path d="M480.92,640.39l18.794-76.729L428.7,521.568l40.991-18.893,52.728,20.333s.32,92.912,0,93.847-19.533,32.109-19.533,32.109Z" transform="translate(-428.698 -502.675)" fill="none"/></clipPath><clipPath id="b"><path d="M462.761,644.352l18.794-76.729L410.538,525.53l-86.587,32.2L390.4,644.44s54.862,31.262,54.541,32.2,39.784-23.711,39.784-23.711Z" transform="translate(-323.951 -525.53)" fill="none"/></clipPath></defs><g transform="translate(-218.98 -1692.833)"><g transform="translate(54.417 1207.921)"><g transform="translate(238.582 484.912)"><path d="M379.693,770.758,261.679,702.622c-3.339-1.928-2.92-5.294.935-7.52l80.359-46.381c3.855-2.225,9.686-2.467,13.024-.54l118.015,68.136c3.339,1.928,2.92,5.295-.935,7.52l-80.359,46.38C388.863,772.444,383.032,772.685,379.693,770.758Z" transform="translate(-255.029 -512.993)" fill="#193540" opacity="0.5"/><path d="M527.979,556.57l-122.8-70.9a4.955,4.955,0,0,0-4.161-.51l.007-.013-.223.084-.054.021-4.438,1.7,3.983,1.95c-.017.074-.04.142-.057.217l-20,91.049c-1,4.556,1,9.876,4.478,11.882l119.847,69.193-.427,5.079,4.85-1.88a6.817,6.817,0,0,0,3.473-4.941l20-91.048C533.458,563.9,531.453,558.576,527.979,556.57Z" transform="translate(-275.928 -484.912)" fill="#193540"/><path d="M529.464,556.57l-122.8-70.9a4.955,4.955,0,0,0-4.161-.51l.007-.013-.223.084-.054.021-4.438,1.7,3.983,1.95c-.017.074-.04.142-.057.217l-13.182,60.007,60.085,46.812,84.72-34.473A9.532,9.532,0,0,0,529.464,556.57Z" transform="translate(-277.413 -484.912)" fill="#5f7884"/><path d="M551.481,585.732l9.348-3.98a11.711,11.711,0,0,0-3.788-9.36l-14.8,6.224Z" transform="translate(-304.061 -500.079)" fill="#405d64"/><path d="M498.261,666.2l-122.8-70.9c-3.474-2.006-5.479-7.326-4.478-11.882l20-91.049c1-4.556,4.629-6.625,8.1-4.619l122.8,70.9c3.474,2.006,5.479,7.326,4.478,11.882l-20,91.048C505.363,666.136,501.735,668.2,498.261,666.2Z" transform="translate(-274.324 -485.271)" fill="#e2dfcf"/><path d="M528.248,558.128l-122.8-70.9a4.857,4.857,0,0,0-4.836-.211,5.048,5.048,0,0,1,3.656.642l122.8,70.9c3.474,2.005,5.479,7.326,4.478,11.882l-20,91.049a6.917,6.917,0,0,1-3.268,4.828c2.073-.453,3.8-2.333,4.447-5.26l20-91.049C533.727,565.454,531.722,560.134,528.248,558.128Z" transform="translate(-279.506 -485.183)" fill="#fff"/><path d="M496.658,660.826,381.167,594.179c-3.179-1.835-5.014-6.7-4.1-10.873l18.3-83.317c.916-4.17,4.236-6.062,7.415-4.227l115.491,66.646c3.178,1.835,5.013,6.7,4.1,10.873l-18.3,83.317C503.157,660.768,499.837,662.661,496.658,660.826Z" transform="translate(-275.384 -486.672)" fill="#fff"/><path d="M496.658,660.826,381.167,594.179c-3.179-1.835-5.014-6.7-4.1-10.873l18.3-83.317c.916-4.17,4.236-6.062,7.415-4.227l115.491,66.646c3.178,1.835,5.013,6.7,4.1,10.873l-18.3,83.317C503.157,660.768,499.837,662.661,496.658,660.826Z" transform="translate(-275.384 -486.672)" fill="#193540"/><path d="M497.664,660.443,382.173,593.8c-3.179-1.835-5.014-6.7-4.1-10.872l18.3-83.318a6.391,6.391,0,0,1,2.91-4.385c-1.83.47-3.344,2.187-3.917,4.8l-18.3,83.317c-.916,4.169.918,9.038,4.1,10.873l115.492,66.646a4.439,4.439,0,0,0,4.5.16A4.606,4.606,0,0,1,497.664,660.443Z" transform="translate(-275.384 -486.7)" fill="#899eaa"/><path d="M479.74,693.649l-16.786-2.216L354.6,628.873c-3.474-2.005-9.542-1.754-13.553.562l-76.781,44.313-10.15-1.34v5.759h.01a3.951,3.951,0,0,0,2.33,3.558l122.8,70.9c3.473,2.005,9.541,1.754,13.553-.561L476.424,703.8c2.257-1.3,3.381-2.981,3.316-4.557h0Z" transform="translate(-254.108 -509.636)" fill="#193540"/><path d="M398.324,658.766l-7.7-4.445H305.988L264.263,678.4l-10.15-1.34v5.759h.01a3.951,3.951,0,0,0,2.33,3.558l122.8,70.9a12.709,12.709,0,0,0,6.994,1.311Z" transform="translate(-254.108 -514.282)" fill="#5f7884"/><path d="M258.617,682.417l-4.5-.594v5.759h.01a3.951,3.951,0,0,0,2.33,3.558l2.164,1.25Z" transform="translate(-254.108 -519.05)" fill="#899eaa"/><path d="M406.995,776.714A15.724,15.724,0,0,0,418.51,776V763.153H406.995Z" transform="translate(-280.613 -533.15)" fill="#405d64"/><path d="M379.252,744.87l-122.8-70.9c-3.474-2.005-3.039-5.509.973-7.825l83.618-48.26c4.011-2.315,10.079-2.568,13.553-.561l122.8,70.9c3.473,2.005,3.038,5.509-.973,7.825L392.8,744.309C388.793,746.624,382.726,746.876,379.252,744.87Z" transform="translate(-254.106 -507.634)" fill="#e2dfcf"/><path d="M476.424,705.172l-83.618,48.26c-4.012,2.316-10.079,2.568-13.553.562l-122.8-70.9a4.575,4.575,0,0,1-2.16-2.362c-.543,1.643.15,3.3,2.16,4.466l122.8,70.9c3.474,2.006,9.541,1.754,13.553-.561l83.618-48.26c2.7-1.557,3.769-3.649,3.133-5.463A6.533,6.533,0,0,1,476.424,705.172Z" transform="translate(-254.108 -518.862)" fill="#fff"/><g transform="translate(48.717 112.703)"><path d="M318.9,656.013l-5.556-3.208c-.446-.257-.39-.708.125-1l6.559-3.787a1.932,1.932,0,0,1,1.74-.072l5.557,3.208c.446.257.39.707-.126,1l-6.558,3.787A1.936,1.936,0,0,1,318.9,656.013Z" transform="translate(-313.04 -625.849)" fill="#899eaa"/><path d="M329.278,662.006l-5.556-3.208c-.446-.257-.39-.708.125-1l6.558-3.787a1.932,1.932,0,0,1,1.74-.072l5.557,3.207c.446.258.39.708-.126,1.005l-6.558,3.787A1.939,1.939,0,0,1,329.278,662.006Z" transform="translate(-314.84 -626.888)" fill="#899eaa"/><path d="M339.658,668l-5.556-3.208c-.446-.257-.39-.708.125-1.005L340.785,660a1.932,1.932,0,0,1,1.74-.072l5.557,3.207c.446.258.39.708-.126,1.005l-6.558,3.786A1.937,1.937,0,0,1,339.658,668Z" transform="translate(-316.64 -627.927)" fill="#899eaa"/><path d="M354.014,663.177l-5.556-3.208c-.446-.258-.39-.708.125-1.005l5.505-3.178a1.932,1.932,0,0,1,1.74-.072l5.557,3.208c.446.257.39.707-.125,1l-5.505,3.178A1.936,1.936,0,0,1,354.014,663.177Z" transform="translate(-319.128 -627.197)" fill="#899eaa"/><path d="M364.394,669.17l-5.556-3.208c-.446-.258-.39-.708.125-1.005l5.505-3.178a1.932,1.932,0,0,1,1.74-.072l5.557,3.208c.446.257.39.707-.125,1l-5.505,3.178A1.936,1.936,0,0,1,364.394,669.17Z" transform="translate(-320.928 -628.236)" fill="#899eaa"/><path d="M374.774,675.162l-5.556-3.207c-.446-.258-.39-.708.125-1.005l5.505-3.178a1.933,1.933,0,0,1,1.741-.072l5.556,3.207c.446.258.39.708-.125,1.005l-5.505,3.178A1.934,1.934,0,0,1,374.774,675.162Z" transform="translate(-322.728 -629.275)" fill="#899eaa"/><path d="M385.154,681.155l-5.556-3.207c-.446-.258-.39-.708.125-1.005l5.505-3.178a1.934,1.934,0,0,1,1.741-.072l5.556,3.207c.446.258.39.708-.125,1.005l-5.505,3.178A1.934,1.934,0,0,1,385.154,681.155Z" transform="translate(-324.527 -630.314)" fill="#899eaa"/><path d="M395.534,687.148l-5.557-3.207c-.446-.258-.39-.708.125-1.005l5.505-3.178a1.934,1.934,0,0,1,1.741-.072l5.556,3.207c.446.258.39.708-.125,1.005l-5.505,3.178A1.932,1.932,0,0,1,395.534,687.148Z" transform="translate(-326.327 -631.352)" fill="#899eaa"/><path d="M405.914,693.141l-5.557-3.207c-.446-.258-.39-.708.125-1.005l5.505-3.178a1.933,1.933,0,0,1,1.741-.072l5.556,3.207c.446.258.39.708-.125,1.005l-5.505,3.178A1.932,1.932,0,0,1,405.914,693.141Z" transform="translate(-328.126 -632.392)" fill="#899eaa"/><path d="M416.294,699.134l-5.557-3.208c-.446-.257-.39-.707.125-1l5.505-3.178a1.937,1.937,0,0,1,1.741-.073l5.556,3.208c.446.258.39.708-.125,1.005l-5.505,3.178A1.932,1.932,0,0,1,416.294,699.134Z" transform="translate(-329.926 -633.43)" fill="#899eaa"/><path d="M426.674,705.127l-5.557-3.208c-.446-.257-.39-.707.125-1l5.505-3.178a1.936,1.936,0,0,1,1.741-.073l5.556,3.208c.446.258.39.708-.125,1.005l-5.505,3.178A1.932,1.932,0,0,1,426.674,705.127Z" transform="translate(-331.725 -634.47)" fill="#899eaa"/><path d="M437.054,711.12l-5.557-3.208c-.446-.257-.39-.708.125-1l5.505-3.178a1.936,1.936,0,0,1,1.741-.073l5.556,3.208c.446.258.39.708-.125,1.005l-5.505,3.179A1.934,1.934,0,0,1,437.054,711.12Z" transform="translate(-333.525 -635.508)" fill="#899eaa"/><path d="M447.434,717.113l-5.557-3.208c-.446-.257-.39-.708.125-1l5.505-3.179a1.939,1.939,0,0,1,1.741-.072l5.556,3.208c.446.257.39.708-.125,1l-5.505,3.179A1.937,1.937,0,0,1,447.434,717.113Z" transform="translate(-335.325 -636.547)" fill="#899eaa"/><path d="M369.309,660.339l-5.557-3.207c-.446-.258-.39-.708.125-1.005l5.505-3.178a1.933,1.933,0,0,1,1.741-.072l5.556,3.207c.446.258.39.708-.125,1.005l-5.505,3.179A1.932,1.932,0,0,1,369.309,660.339Z" transform="translate(-321.78 -626.705)" fill="#899eaa"/><path d="M358.773,654.257l-5.557-3.208c-.446-.257-.39-.708.125-1l5.505-3.178a1.936,1.936,0,0,1,1.741-.073L366.144,650c.446.258.39.708-.125,1.005l-5.505,3.178A1.935,1.935,0,0,1,358.773,654.257Z" transform="translate(-319.954 -625.65)" fill="#899eaa"/><path d="M346.877,647.389,334.91,640.48c-.446-.258-.39-.708.125-1.005l5.505-3.178a1.933,1.933,0,0,1,1.741-.072l11.966,6.909c.446.257.39.708-.125,1l-5.505,3.178A1.935,1.935,0,0,1,346.877,647.389Z" transform="translate(-316.78 -623.818)" fill="#899eaa"/><path d="M354.725,640.253l-9.711-5.607c-.446-.258-.39-.708.126-1.005l5.505-3.178a1.932,1.932,0,0,1,1.74-.072L362.1,636c.446.257.39.708-.125,1l-5.505,3.178A1.936,1.936,0,0,1,354.725,640.253Z" transform="translate(-318.532 -622.806)" fill="#899eaa"/><path d="M379.688,666.332l-5.557-3.207c-.446-.258-.39-.708.125-1.005l5.505-3.178a1.934,1.934,0,0,1,1.741-.072l5.556,3.207c.446.258.39.708-.125,1.005l-5.505,3.178A1.932,1.932,0,0,1,379.688,666.332Z" transform="translate(-323.58 -627.744)" fill="#899eaa"/><path d="M390.068,672.325l-5.557-3.208c-.446-.257-.39-.707.125-1l5.505-3.178a1.936,1.936,0,0,1,1.741-.073l5.556,3.208c.446.258.39.708-.125,1.005l-5.505,3.178A1.932,1.932,0,0,1,390.068,672.325Z" transform="translate(-325.379 -628.783)" fill="#899eaa"/><path d="M400.449,678.318l-5.557-3.208c-.446-.257-.39-.707.125-1l5.505-3.178a1.936,1.936,0,0,1,1.741-.073l5.556,3.208c.446.258.39.708-.125,1.005l-5.505,3.178A1.932,1.932,0,0,1,400.449,678.318Z" transform="translate(-327.179 -629.822)" fill="#899eaa"/><path d="M410.828,684.311l-5.557-3.208c-.446-.257-.39-.708.126-1l5.5-3.178a1.937,1.937,0,0,1,1.741-.073l5.556,3.208c.446.258.39.708-.125,1.005l-5.505,3.178A1.934,1.934,0,0,1,410.828,684.311Z" transform="translate(-328.978 -630.861)" fill="#899eaa"/><path d="M421.208,690.3l-5.557-3.208c-.446-.257-.39-.708.126-1l5.5-3.178a1.936,1.936,0,0,1,1.741-.073l5.556,3.208c.446.257.39.708-.125,1.005l-5.505,3.178A1.937,1.937,0,0,1,421.208,690.3Z" transform="translate(-330.778 -631.9)" fill="#899eaa"/><path d="M431.588,696.3l-5.557-3.208c-.446-.257-.39-.708.126-1l5.5-3.179a1.939,1.939,0,0,1,1.741-.072l5.557,3.208c.446.257.389.708-.126,1l-5.505,3.179A1.937,1.937,0,0,1,431.588,696.3Z" transform="translate(-332.577 -632.939)" fill="#899eaa"/><path d="M441.968,702.29l-5.557-3.208c-.446-.258-.39-.708.126-1.005l5.505-3.178a1.935,1.935,0,0,1,1.74-.072l5.557,3.208c.446.257.39.708-.126,1l-5.505,3.179A1.935,1.935,0,0,1,441.968,702.29Z" transform="translate(-334.377 -633.978)" fill="#899eaa"/><path d="M452.348,708.283l-5.557-3.208c-.446-.258-.39-.708.126-1.005l5.505-3.178a1.932,1.932,0,0,1,1.74-.072l5.557,3.208c.446.257.39.707-.126,1l-5.505,3.178A1.935,1.935,0,0,1,452.348,708.283Z" transform="translate(-336.177 -635.017)" fill="#899eaa"/><path d="M462.729,714.276l-5.556-3.208c-.446-.258-.39-.708.125-1.005l5.505-3.178a1.932,1.932,0,0,1,1.74-.072l5.557,3.208c.446.257.39.707-.126,1l-5.5,3.178A1.936,1.936,0,0,1,462.729,714.276Z" transform="translate(-337.976 -636.055)" fill="#899eaa"/><path d="M479.8,724.135l-12.123-7c-.446-.257-.39-.707.125-1l5.505-3.178a1.934,1.934,0,0,1,1.74-.073l12.123,7c.446.257.39.707-.125,1l-5.505,3.178A1.936,1.936,0,0,1,479.8,724.135Z" transform="translate(-339.798 -637.107)" fill="#899eaa"/><path d="M500.41,712.7l-10.232-5.908c-.446-.257-.39-.707.125-1l5.505-3.178a1.934,1.934,0,0,1,1.74-.073l10.233,5.908c.446.258.39.708-.126,1.005l-5.5,3.178A1.934,1.934,0,0,1,500.41,712.7Z" transform="translate(-343.698 -635.314)" fill="#899eaa"/><path d="M397.866,665.16l-5.556-3.208c-.446-.258-.39-.708.125-1.005l5.505-3.178a1.935,1.935,0,0,1,1.74-.072l5.557,3.208c.446.257.39.708-.125,1l-5.505,3.178A1.936,1.936,0,0,1,397.866,665.16Z" transform="translate(-326.731 -627.54)" fill="#899eaa"/><path d="M387.228,659.018l-5.556-3.208c-.446-.258-.39-.708.125-1.005l5.505-3.178a1.934,1.934,0,0,1,1.74-.072l5.557,3.208c.446.257.39.708-.125,1l-5.505,3.178A1.936,1.936,0,0,1,387.228,659.018Z" transform="translate(-324.887 -626.476)" fill="#899eaa"/><path d="M376.589,652.876l-5.557-3.208c-.446-.258-.39-.708.126-1.005l5.5-3.178a1.936,1.936,0,0,1,1.741-.072l5.557,3.208c.446.257.39.708-.126,1L378.33,652.8A1.935,1.935,0,0,1,376.589,652.876Z" transform="translate(-323.042 -625.411)" fill="#899eaa"/><path d="M365.952,646.734l-5.557-3.208c-.446-.258-.39-.708.125-1.005l5.505-3.178a1.936,1.936,0,0,1,1.741-.072l5.556,3.208c.446.257.39.708-.125,1l-5.505,3.178A1.935,1.935,0,0,1,365.952,646.734Z" transform="translate(-321.198 -624.346)" fill="#899eaa"/><path d="M408.246,671.153l-5.556-3.208c-.446-.258-.39-.708.125-1.005l5.505-3.178a1.934,1.934,0,0,1,1.741-.072l5.556,3.208c.446.257.39.707-.125,1l-5.505,3.178A1.936,1.936,0,0,1,408.246,671.153Z" transform="translate(-328.531 -628.579)" fill="#899eaa"/><path d="M418.626,677.146l-5.556-3.208c-.446-.258-.39-.708.125-1.005l5.505-3.178a1.933,1.933,0,0,1,1.741-.072L426,672.891c.446.257.39.707-.125,1l-5.505,3.178A1.936,1.936,0,0,1,418.626,677.146Z" transform="translate(-330.33 -629.618)" fill="#899eaa"/><path d="M429.006,683.138l-5.557-3.207c-.446-.258-.39-.708.125-1.005l5.505-3.178a1.934,1.934,0,0,1,1.741-.072l5.556,3.207c.446.258.39.708-.125,1.005l-5.505,3.178A1.932,1.932,0,0,1,429.006,683.138Z" transform="translate(-332.13 -630.657)" fill="#899eaa"/><path d="M439.386,689.131l-5.557-3.207c-.446-.258-.39-.708.125-1.005l5.505-3.178a1.933,1.933,0,0,1,1.741-.072l5.556,3.207c.446.258.39.707-.125,1.005l-5.505,3.178A1.932,1.932,0,0,1,439.386,689.131Z" transform="translate(-333.929 -631.696)" fill="#899eaa"/><path d="M449.766,695.124l-5.557-3.207c-.446-.258-.39-.708.125-1.005l5.505-3.178a1.934,1.934,0,0,1,1.741-.072l5.556,3.207c.446.258.39.708-.125,1.005l-5.505,3.178A1.932,1.932,0,0,1,449.766,695.124Z" transform="translate(-335.729 -632.735)" fill="#899eaa"/><path d="M460.146,701.117l-5.557-3.208c-.446-.257-.39-.707.125-1l5.505-3.178a1.934,1.934,0,0,1,1.741-.072l5.556,3.207c.446.258.39.708-.125,1.005l-5.505,3.178A1.932,1.932,0,0,1,460.146,701.117Z" transform="translate(-337.528 -633.774)" fill="#899eaa"/><path d="M470.526,707.11,464.97,703.9c-.446-.257-.39-.707.125-1l5.505-3.178a1.936,1.936,0,0,1,1.741-.073l5.556,3.208c.446.258.39.708-.125,1.005l-5.505,3.178A1.932,1.932,0,0,1,470.526,707.11Z" transform="translate(-339.328 -634.813)" fill="#899eaa"/><path d="M480.906,713.1,475.35,709.9c-.446-.257-.39-.708.125-1l5.505-3.178a1.936,1.936,0,0,1,1.741-.073l5.556,3.208c.446.258.39.708-.125,1.005l-5.505,3.178A1.932,1.932,0,0,1,480.906,713.1Z" transform="translate(-341.128 -635.852)" fill="#899eaa"/><path d="M491.286,719.1l-5.557-3.208c-.446-.257-.39-.708.125-1l5.505-3.178a1.936,1.936,0,0,1,1.741-.073l5.556,3.208c.446.257.39.708-.125,1.005l-5.505,3.178A1.937,1.937,0,0,1,491.286,719.1Z" transform="translate(-342.927 -636.891)" fill="#899eaa"/><path d="M392.4,650.337l-5.557-3.208c-.446-.258-.39-.708.125-1.005l5.505-3.178a1.934,1.934,0,0,1,1.741-.072l5.556,3.208c.446.257.39.707-.125,1l-5.505,3.178A1.935,1.935,0,0,1,392.4,650.337Z" transform="translate(-325.783 -624.971)" fill="#899eaa"/><path d="M382.072,644.373l-5.556-3.207c-.446-.258-.39-.708.125-1.005l5.505-3.178a1.932,1.932,0,0,1,1.74-.072l5.557,3.207c.446.258.39.708-.125,1.005l-5.505,3.178A1.934,1.934,0,0,1,382.072,644.373Z" transform="translate(-323.993 -623.937)" fill="#899eaa"/><path d="M371.743,638.41l-5.557-3.207c-.446-.258-.39-.708.126-1.005l5.5-3.178a1.934,1.934,0,0,1,1.741-.072l5.556,3.207c.446.258.39.708-.125,1.005l-5.505,3.178A1.932,1.932,0,0,1,371.743,638.41Z" transform="translate(-322.202 -622.903)" fill="#899eaa"/><path d="M361.415,632.447l-5.557-3.207c-.446-.258-.39-.708.125-1.005l5.505-3.178a1.934,1.934,0,0,1,1.741-.072l5.556,3.207c.446.258.39.708-.125,1.005l-5.505,3.178A1.932,1.932,0,0,1,361.415,632.447Z" transform="translate(-320.412 -621.869)" fill="#899eaa"/><path d="M372.036,626.762l-5.556-3.207c-.446-.258-.39-.708.125-1.005l1.819-1.051a1.934,1.934,0,0,1,1.741-.072l5.557,3.207c.446.258.39.708-.126,1.005l-1.819,1.051A1.934,1.934,0,0,1,372.036,626.762Z" transform="translate(-322.253 -621.252)" fill="#899eaa"/><path d="M385.514,634.543l-5.557-3.207c-.446-.258-.39-.708.125-1.005l1.82-1.051a1.934,1.934,0,0,1,1.741-.072l5.556,3.207c.446.258.39.708-.125,1.005l-1.82,1.051A1.932,1.932,0,0,1,385.514,634.543Z" transform="translate(-324.59 -622.601)" fill="#899eaa"/><path d="M395.8,640.482l-5.556-3.207c-.446-.258-.39-.708.125-1.005l1.819-1.051a1.934,1.934,0,0,1,1.741-.072l5.556,3.207c.446.258.39.708-.125,1.005l-1.819,1.051A1.934,1.934,0,0,1,395.8,640.482Z" transform="translate(-326.373 -623.631)" fill="#899eaa"/><path d="M406.085,646.42l-5.556-3.208c-.446-.258-.39-.708.125-1.005l1.82-1.051a1.938,1.938,0,0,1,1.74-.072l5.557,3.208c.446.257.39.708-.125,1l-1.82,1.051A1.937,1.937,0,0,1,406.085,646.42Z" transform="translate(-328.156 -624.66)" fill="#899eaa"/><path d="M416.371,652.358l-5.557-3.208c-.446-.257-.39-.707.126-1l1.819-1.051a1.937,1.937,0,0,1,1.741-.073l5.556,3.208c.446.258.39.708-.125,1.005l-1.82,1.051A1.932,1.932,0,0,1,416.371,652.358Z" transform="translate(-329.939 -625.69)" fill="#899eaa"/><path d="M473.792,685.511l-5.556-3.207c-.446-.258-.39-.708.125-1.005l1.82-1.051a1.932,1.932,0,0,1,1.74-.072l5.557,3.207c.446.258.39.708-.125,1.005l-1.82,1.051A1.934,1.934,0,0,1,473.792,685.511Z" transform="translate(-339.894 -631.438)" fill="#899eaa"/><path d="M484.077,691.449l-5.557-3.208c-.446-.258-.39-.708.125-1.005l1.82-1.051a1.934,1.934,0,0,1,1.741-.072l5.556,3.208c.446.257.39.707-.125,1l-1.82,1.051A1.935,1.935,0,0,1,484.077,691.449Z" transform="translate(-341.677 -632.467)" fill="#899eaa"/><path d="M494.363,697.388l-5.556-3.208c-.446-.257-.39-.708.125-1l1.819-1.051a1.939,1.939,0,0,1,1.741-.072l5.556,3.208c.446.257.39.708-.125,1l-1.819,1.052A1.939,1.939,0,0,1,494.363,697.388Z" transform="translate(-343.461 -633.497)" fill="#899eaa"/><path d="M504.648,703.325l-5.556-3.208c-.446-.257-.39-.707.125-1l1.82-1.051a1.935,1.935,0,0,1,1.74-.073l5.557,3.208c.446.258.39.708-.125,1.005l-1.82,1.051A1.933,1.933,0,0,1,504.648,703.325Z" transform="translate(-345.244 -634.526)" fill="#899eaa"/><path d="M402.78,656.329l-5.557-3.207c-.446-.258-.39-.708.125-1.005l5.505-3.178a1.934,1.934,0,0,1,1.741-.072l5.556,3.207c.446.258.39.708-.125,1.005l-5.505,3.178A1.932,1.932,0,0,1,402.78,656.329Z" transform="translate(-327.583 -626.01)" fill="#899eaa"/><path d="M413.16,662.322l-5.557-3.207c-.446-.258-.39-.708.125-1.005l5.505-3.178a1.934,1.934,0,0,1,1.741-.072l5.556,3.207c.446.258.39.708-.125,1.005L414.9,662.25A1.932,1.932,0,0,1,413.16,662.322Z" transform="translate(-329.383 -627.048)" fill="#899eaa"/><path d="M423.54,668.315l-5.557-3.207c-.446-.258-.39-.707.125-1.005l5.505-3.178a1.934,1.934,0,0,1,1.741-.072l5.556,3.207c.446.258.39.708-.125,1.005l-5.505,3.178A1.932,1.932,0,0,1,423.54,668.315Z" transform="translate(-331.182 -628.088)" fill="#899eaa"/><path d="M433.92,674.308l-5.557-3.207c-.446-.258-.39-.708.125-1.005l5.505-3.178a1.934,1.934,0,0,1,1.741-.072l5.556,3.207c.446.258.39.708-.125,1.005l-5.505,3.178A1.932,1.932,0,0,1,433.92,674.308Z" transform="translate(-332.982 -629.126)" fill="#899eaa"/><path d="M444.3,680.3l-5.557-3.208c-.446-.257-.39-.707.126-1l5.5-3.178a1.936,1.936,0,0,1,1.741-.073l5.556,3.208c.446.258.39.708-.125,1.005l-5.505,3.178A1.931,1.931,0,0,1,444.3,680.3Z" transform="translate(-334.781 -630.166)" fill="#899eaa"/><path d="M454.681,686.294l-5.557-3.208c-.446-.257-.39-.707.126-1l5.5-3.178a1.936,1.936,0,0,1,1.741-.073l5.556,3.208c.446.258.39.708-.125,1.005l-5.505,3.178A1.932,1.932,0,0,1,454.681,686.294Z" transform="translate(-336.581 -631.204)" fill="#899eaa"/><path d="M465.06,692.287l-5.557-3.208c-.446-.257-.39-.708.126-1l5.5-3.178a1.937,1.937,0,0,1,1.741-.073l5.557,3.208c.446.258.39.707-.126,1.005l-5.505,3.178A1.935,1.935,0,0,1,465.06,692.287Z" transform="translate(-338.38 -632.244)" fill="#899eaa"/><path d="M475.441,698.28l-5.557-3.208c-.446-.257-.39-.708.126-1l5.505-3.178a1.935,1.935,0,0,1,1.74-.073l5.557,3.208c.446.257.39.708-.126,1.005l-5.505,3.178A1.937,1.937,0,0,1,475.441,698.28Z" transform="translate(-340.18 -633.282)" fill="#899eaa"/><path d="M485.82,704.273l-5.557-3.208c-.446-.257-.39-.708.126-1l5.505-3.179a1.937,1.937,0,0,1,1.74-.072l5.557,3.208c.446.257.39.708-.126,1l-5.5,3.179A1.939,1.939,0,0,1,485.82,704.273Z" transform="translate(-341.98 -634.322)" fill="#899eaa"/><path d="M341.169,655.761l-16.363-9.448c-.446-.257-.39-.707.125-1l5.505-3.178a1.935,1.935,0,0,1,1.74-.073l16.364,9.448c.446.258.39.708-.125,1.005l-5.505,3.178A1.934,1.934,0,0,1,341.169,655.761Z" transform="translate(-315.028 -624.829)" fill="#899eaa"/><path d="M468.691,729.386l-16.364-9.448c-.446-.258-.39-.708.125-1.005l5.505-3.178a1.934,1.934,0,0,1,1.741-.072l16.363,9.448c.446.257.39.708-.125,1l-5.505,3.179A1.937,1.937,0,0,1,468.691,729.386Z" transform="translate(-337.136 -637.593)" fill="#899eaa"/><path d="M429.446,719.838l-5.556-3.208c-.446-.257-.39-.708.125-1l6.559-3.787a1.932,1.932,0,0,1,1.74-.072l5.557,3.208c.446.257.39.707-.125,1l-6.559,3.787A1.936,1.936,0,0,1,429.446,719.838Z" transform="translate(-332.206 -636.914)" fill="#899eaa"/><path d="M353.367,675.914l-8.885-5.13c-.446-.258-.39-.708.125-1.005l6.559-3.786a1.932,1.932,0,0,1,1.74-.072l8.886,5.13c.446.257.39.708-.125,1l-6.559,3.787A1.934,1.934,0,0,1,353.367,675.914Z" transform="translate(-318.439 -628.966)" fill="#899eaa"/><path d="M418.746,713.66l-8.885-5.131c-.446-.257-.39-.707.125-1l6.558-3.787a1.936,1.936,0,0,1,1.741-.072l8.885,5.13c.446.258.39.708-.125,1.005l-6.558,3.786A1.936,1.936,0,0,1,418.746,713.66Z" transform="translate(-329.774 -635.51)" fill="#899eaa"/><path d="M368.344,684.561l-8.886-5.13c-.446-.258-.39-.708.125-1.005l6.559-3.787a1.937,1.937,0,0,1,1.74-.072l8.886,5.13c.446.258.39.708-.125,1.005l-6.559,3.787A1.937,1.937,0,0,1,368.344,684.561Z" transform="translate(-321.036 -630.465)" fill="#899eaa"/><path d="M368.017,674.645l38.633,22.3a.529.529,0,0,1,0,1l-6.687,3.861a1.923,1.923,0,0,1-1.736,0l-38.633-22.305Z" transform="translate(-321.111 -630.509)" fill="#899eaa"/><path d="M458.75,732.4l6.189,3.573c.365.212.32.58-.1.824l-2.682,1.549a1.584,1.584,0,0,1-1.427.059l-6.189-3.573c-.366-.212-.32-.58.1-.824l2.682-1.549A1.584,1.584,0,0,1,458.75,732.4Z" transform="translate(-337.529 -640.498)" fill="#899eaa"/><path d="M448.284,726.36l6.189,3.574c.365.211.32.579-.1.823l-2.682,1.549a1.587,1.587,0,0,1-1.427.06l-6.189-3.574c-.366-.211-.32-.58.1-.824l2.682-1.548A1.587,1.587,0,0,1,448.284,726.36Z" transform="translate(-335.714 -639.45)" fill="#899eaa"/><path d="M437.9,720.367l6.189,3.574c.365.211.32.579-.1.823l-2.683,1.549a1.585,1.585,0,0,1-1.426.06l-6.189-3.574c-.366-.211-.32-.58.1-.823l2.683-1.549A1.587,1.587,0,0,1,437.9,720.367Z" transform="translate(-333.915 -638.411)" fill="#899eaa"/><path d="M454.016,723.051l6.189,3.573c.365.212.32.58-.1.824L457.42,729a1.584,1.584,0,0,1-1.427.059l-6.189-3.573c-.366-.211-.32-.58.1-.823l2.682-1.549A1.584,1.584,0,0,1,454.016,723.051Z" transform="translate(-336.708 -638.876)" fill="#899eaa"/></g><g transform="translate(130.279 36.252)"><path d="M486.26,599.916l-46.219-26.684.595-3,46.219,26.684Z" transform="translate(-416.621 -535.955)" fill="#e2dfcf"/><path d="M469.162,607.74,436.9,589.113l.595-3,32.263,18.627Z" transform="translate(-416.076 -538.709)" fill="#e2dfcf"/><path d="M466.381,597.287,438.47,581.172l.595-3,27.911,16.115Z" transform="translate(-416.348 -537.332)" fill="#fff"/><path d="M491.455,611.763,477.5,603.706l.594-3,13.956,8.057Z" transform="translate(-423.115 -541.239)" fill="#ff6b00"/><path d="M431.16,539.83,417.2,531.772l.595-3,13.956,8.057Z" transform="translate(-412.661 -528.768)" fill="#e2dfcf"/><path d="M429.328,548.277l-13.956-8.057.595-3,13.956,8.057Z" transform="translate(-412.344 -530.232)" fill="#fff"/><path d="M512.19,665.444l-13.956-8.057.595-3,13.956,8.057Z" transform="translate(-426.71 -550.545)" fill="#e2dfcf"/><path d="M425.664,565.171l-13.956-8.057.595-3,13.956,8.057Z" transform="translate(-411.709 -533.161)" fill="#e2dfcf"/></g><g transform="translate(170.799 67.428)"><path d="M464.316,569.479a1.742,1.742,0,0,1-2.51.773,2.184,2.184,0,0,1-.9-2.74,1.741,1.741,0,0,1,2.509-.773A2.184,2.184,0,0,1,464.316,569.479Z" transform="translate(-460.727 -566.482)" fill="#ff6b00"/><path d="M471.587,573.678a1.741,1.741,0,0,1-2.509.772,2.183,2.183,0,0,1-.9-2.74,1.741,1.741,0,0,1,2.509-.772A2.183,2.183,0,0,1,471.587,573.678Z" transform="translate(-461.988 -567.21)" fill="#fff"/><path d="M478.859,577.876a1.741,1.741,0,0,1-2.509.773,2.184,2.184,0,0,1-.9-2.74,1.742,1.742,0,0,1,2.51-.773A2.184,2.184,0,0,1,478.859,577.876Z" transform="translate(-463.248 -567.938)" fill="#e2dfcf"/><path d="M486.131,582.074a1.741,1.741,0,0,1-2.51.773,2.184,2.184,0,0,1-.9-2.74,1.742,1.742,0,0,1,2.51-.773A2.185,2.185,0,0,1,486.131,582.074Z" transform="translate(-464.509 -568.666)" fill="#ff6b00"/></g><path d="M357.822,725.909,319.509,703.79c-1.115-.644-.975-1.769.312-2.512l23.121-13.348a4.833,4.833,0,0,1,4.351-.181l38.313,22.12c1.115.644.975,1.769-.312,2.512l-23.12,13.348A4.835,4.835,0,0,1,357.822,725.909Z" transform="translate(-265.315 -520.002)" fill="#fff"/></g><g transform="translate(382.905 499.596)" opacity="0.3"><g clip-path="url(#a)"><g transform="translate(-32.752 22.131)"><g transform="translate(0 63.073)"><path d="M456.527,612.809c2.639,1.524,2.639,4,0,5.527l-44.863,25.9a2.9,2.9,0,0,1-2.628,0,.8.8,0,0,1,0-1.518l44.863-25.9a1.317,1.317,0,0,0,0-2.493l-4.347-2.51c.483-.727.922-1.483,1.35-2.255Z" transform="translate(-392.443 -606.41)" fill="#e2dfcf"/><path d="M389.621,632.793l44.863-25.9a10.593,10.593,0,0,1,9.573,0l3.478,2.008c-.428.772-.867,1.529-1.35,2.255l-4.756-2.746a4.781,4.781,0,0,0-4.318,0l-44.863,25.9a2.9,2.9,0,0,1-2.628,0A.8.8,0,0,1,389.621,632.793Z" transform="translate(-389.077 -605.749)" fill="#899eaa"/></g><path d="M389.082,620.63l0-63.084,47.014-26.208,6.575-.433,6.358,4.118,3.9,3.4-45.806,72.638-14.956,8.815Z" transform="translate(-389.077 -529.7)" fill="#899eaa"/><path d="M407.169,634.6l-14.052-8.113V565.518l14.486,6.733Z" transform="translate(-389.778 -535.701)" fill="#899eaa"/><path d="M458.5,540.585v62.981L409.151,631.8l-.659-.264V568.459Z" transform="translate(-392.443 -531.379)" fill="#e2dfcf"/><g transform="translate(3.339 3.702)"><path d="M428.081,539.951l9.808-5.635a4.813,4.813,0,0,1,4.06.122l9.1,5.256a1.39,1.39,0,0,1,.859,1.5L427.125,556l-19.909,12.22-14.1-8.179Z" transform="translate(-393.117 -533.927)" fill="#fff"/></g><path d="M410.268,573.107v65.12a2.635,2.635,0,0,1-1.233-.309.93.93,0,0,1-.542-.745l0,0V574.1Z" transform="translate(-392.443 -537.017)" fill="#899eaa"/><path d="M389.077,563.92v-.787h.251l.076.534Z" transform="translate(-389.077 -535.288)" fill="#fff"/><path d="M408.493,575.125v-.806l.242.342Z" transform="translate(-392.443 -537.227)" fill="#fff"/><g transform="translate(0)"><path d="M408.3,567.275l44.863-25.9c2.639-1.523,2.639-4,0-5.527l-9.1-5.256a10.6,10.6,0,0,0-9.573,0l-44.863,25.9a.8.8,0,0,0,0,1.517,2.9,2.9,0,0,0,2.628,0l44.863-25.9a4.781,4.781,0,0,1,4.318,0l9.1,5.257a1.316,1.316,0,0,1,0,2.492l-44.863,25.9a.8.8,0,0,0,0,1.517A2.9,2.9,0,0,0,408.3,567.275Z" transform="translate(-389.077 -529.448)" fill="#e2dfcf"/></g><path d="M426.473,603.606l23.313-13.46v-23.37l-23.313,13.46Z" transform="translate(-395.56 -535.919)" fill="#fff"/><g transform="translate(0.002 2.144)"><path d="M389.621,558.459a2.9,2.9,0,0,0,2.628,0l44.863-25.9a4.78,4.78,0,0,1,4.318,0l9.1,5.257c.78.45,1.045,1.084.8,1.662a1.806,1.806,0,0,0-.8-.831l-9.1-5.257a4.778,4.778,0,0,0-4.318,0l-44.863,25.9a2.9,2.9,0,0,1-2.628,0c-.55-.318-.68-.784-.4-1.174A1.252,1.252,0,0,0,389.621,558.459Z" transform="translate(-389.079 -532.042)" fill="#fff"/><path d="M409.036,569.283a2.9,2.9,0,0,0,2.628,0l44.863-25.9a3.62,3.62,0,0,0,1.938-2.348c.208,1.134-.436,2.311-1.938,3.178l-44.863,25.9a2.9,2.9,0,0,1-2.628,0c-.55-.317-.681-.784-.4-1.174A1.265,1.265,0,0,0,409.036,569.283Z" transform="translate(-392.445 -533.601)" fill="#fff"/></g><g transform="translate(20.625 12.211)"><g transform="translate(0 63.073)"><path d="M481.478,627.581c2.639,1.523,2.639,4,0,5.527l-44.863,25.9a2.9,2.9,0,0,1-2.628,0,.8.8,0,0,1,0-1.518l44.863-25.9a1.317,1.317,0,0,0,0-2.493l-4.347-2.51c.483-.727.922-1.483,1.35-2.255Z" transform="translate(-417.394 -621.182)" fill="#ff6b00"/><path d="M414.573,647.566l44.862-25.9a10.592,10.592,0,0,1,9.573,0l3.479,2.008c-.428.772-.867,1.529-1.35,2.255l-4.756-2.746a4.78,4.78,0,0,0-4.317,0l-44.862,25.9a2.9,2.9,0,0,1-2.628,0A.8.8,0,0,1,414.573,647.566Z" transform="translate(-414.028 -620.521)" fill="#bf4d00"/></g><path d="M414.033,635.4l0-63.084,47.014-26.208,6.575-.433,6.358,4.118,3.9,3.4L432.07,625.828l-14.955,8.815Z" transform="translate(-414.028 -544.472)" fill="#bf4d00"/><path d="M432.12,649.37l-14.052-8.113V580.289l14.486,6.734Z" transform="translate(-414.729 -550.473)" fill="#ef8741"/><path d="M483.456,555.357v62.981L434.1,646.568l-.658-.264V583.231Z" transform="translate(-417.394 -546.151)" fill="#ff6b00"/><g transform="translate(3.339 3.702)"><path d="M453.032,554.723l9.809-5.635a4.812,4.812,0,0,1,4.059.122l9.1,5.256a1.391,1.391,0,0,1,.859,1.5l-24.786,14.811-19.909,12.22-14.1-8.179Z" transform="translate(-418.068 -548.699)" fill="#fff"/></g><path d="M435.219,587.879V653a2.636,2.636,0,0,1-1.233-.309.929.929,0,0,1-.541-.745l0,0V588.869Z" transform="translate(-417.394 -551.789)" fill="#bf4d00"/><path d="M414.028,578.692v-.787h.251l.077.534Z" transform="translate(-414.028 -550.06)" fill="#fff"/><path d="M433.444,589.9v-.806l.242.342Z" transform="translate(-417.394 -551.999)" fill="#fff"/><g transform="translate(0)"><path d="M433.249,582.047l44.863-25.9c2.639-1.523,2.639-4,0-5.527l-9.1-5.256a10.6,10.6,0,0,0-9.573,0l-44.862,25.9a.8.8,0,0,0,0,1.517,2.9,2.9,0,0,0,2.628,0l44.862-25.9a4.78,4.78,0,0,1,4.317,0l9.1,5.257a1.316,1.316,0,0,1,0,2.492l-44.863,25.9a.8.8,0,0,0,0,1.517A2.9,2.9,0,0,0,433.249,582.047Z" transform="translate(-414.028 -544.22)" fill="#ff6b00"/></g><path d="M451.424,618.378l23.313-13.46V581.548l-23.313,13.46Z" transform="translate(-420.511 -550.691)" fill="#fff"/><g transform="translate(0.002 2.144)"><path d="M414.573,573.231a2.9,2.9,0,0,0,2.628,0l44.862-25.9a4.78,4.78,0,0,1,4.317,0l9.1,5.257c.78.45,1.045,1.084.8,1.661a1.81,1.81,0,0,0-.8-.831l-9.1-5.257a4.777,4.777,0,0,0-4.317,0l-44.862,25.9a2.9,2.9,0,0,1-2.628,0c-.551-.317-.681-.784-.4-1.174A1.246,1.246,0,0,0,414.573,573.231Z" transform="translate(-414.03 -546.814)" fill="#fff"/><path d="M433.987,584.055a2.9,2.9,0,0,0,2.628,0l44.863-25.9a3.62,3.62,0,0,0,1.938-2.348c.208,1.134-.436,2.311-1.938,3.178l-44.863,25.9a2.9,2.9,0,0,1-2.628,0c-.55-.317-.681-.784-.4-1.174A1.263,1.263,0,0,0,433.987,584.055Z" transform="translate(-417.396 -548.373)" fill="#fff"/></g></g><g transform="translate(41.819 25.261)"><g transform="translate(0 63.074)"><path d="M507.116,643.368c2.639,1.524,2.639,4,0,5.528l-44.862,25.9a2.9,2.9,0,0,1-2.628,0,.8.8,0,0,1,0-1.517l44.862-25.9a1.316,1.316,0,0,0,0-2.492l-4.347-2.51c.484-.727.922-1.483,1.351-2.255Z" transform="translate(-443.032 -636.97)" fill="#e2dfcf"/><path d="M440.211,663.353l44.863-25.9a10.6,10.6,0,0,1,9.573,0l3.478,2.009c-.429.772-.867,1.528-1.351,2.255l-4.756-2.746a4.775,4.775,0,0,0-4.318,0l-44.863,25.9a2.9,2.9,0,0,1-2.628,0A.8.8,0,0,1,440.211,663.353Z" transform="translate(-439.666 -636.309)" fill="#899eaa"/></g><path d="M439.671,651.19l0-63.084L486.681,561.9l6.575-.433,6.358,4.118,3.9,3.4-45.806,72.638-14.956,8.814Z" transform="translate(-439.667 -560.259)" fill="#899eaa"/><path d="M457.759,665.158l-14.052-8.113V596.077l14.486,6.734Z" transform="translate(-440.367 -566.26)" fill="#899eaa"/><path d="M509.095,571.144v62.981l-49.354,28.23-.659-.264V599.018Z" transform="translate(-443.032 -561.938)" fill="#e2dfcf"/><g transform="translate(3.339 3.702)"><path d="M478.671,570.511l9.808-5.636a4.816,4.816,0,0,1,4.06.122l9.1,5.256a1.392,1.392,0,0,1,.859,1.5L477.715,586.56l-19.909,12.22-14.1-8.18Z" transform="translate(-443.706 -564.486)" fill="#fff"/></g><path d="M460.858,603.667v65.12a2.643,2.643,0,0,1-1.232-.31.927.927,0,0,1-.542-.745l0,0V604.656Z" transform="translate(-443.032 -567.576)" fill="#899eaa"/><path d="M439.667,594.48v-.787h.251l.077.534Z" transform="translate(-439.667 -565.847)" fill="#fff"/><path d="M459.083,605.684v-.806l.242.342Z" transform="translate(-443.033 -567.786)" fill="#fff"/><path d="M458.888,597.834l44.862-25.9c2.639-1.523,2.639-4,0-5.527l-9.1-5.257a10.6,10.6,0,0,0-9.573,0l-44.863,25.9a.8.8,0,0,0,0,1.518,2.909,2.909,0,0,0,2.628,0l44.863-25.9a4.78,4.78,0,0,1,4.318,0l9.1,5.256a1.317,1.317,0,0,1,0,2.493l-44.862,25.9a.8.8,0,0,0,0,1.518A2.909,2.909,0,0,0,458.888,597.834Z" transform="translate(-439.666 -560.007)" fill="#e2dfcf"/><path d="M477.063,634.165l23.313-13.46v-23.37l-23.313,13.46Z" transform="translate(-446.15 -566.478)" fill="#fff"/><g transform="translate(0.002 2.145)"><path d="M440.211,589.019a2.908,2.908,0,0,0,2.628,0l44.863-25.9a4.78,4.78,0,0,1,4.317,0l9.1,5.256c.78.45,1.046,1.085.8,1.661a1.807,1.807,0,0,0-.8-.831l-9.1-5.256a4.781,4.781,0,0,0-4.317,0l-44.863,25.9a2.9,2.9,0,0,1-2.628,0c-.55-.317-.681-.784-.4-1.174A1.285,1.285,0,0,0,440.211,589.019Z" transform="translate(-439.668 -562.602)" fill="#fff"/><path d="M459.626,599.843a2.908,2.908,0,0,0,2.628,0l44.862-25.9a3.62,3.62,0,0,0,1.938-2.348c.208,1.135-.436,2.312-1.938,3.179l-44.862,25.9a2.9,2.9,0,0,1-2.628,0c-.551-.318-.681-.785-.4-1.174A1.266,1.266,0,0,0,459.626,599.843Z" transform="translate(-443.034 -564.161)" fill="#fff"/></g></g></g></g></g><g transform="translate(296.318 518.488)"><g transform="translate(0 0)" clip-path="url(#b)"><g transform="translate(53.835 3.239)"><g transform="translate(0 63.073)"><path d="M456.527,612.809c2.639,1.524,2.639,4,0,5.527l-44.863,25.9a2.9,2.9,0,0,1-2.628,0,.8.8,0,0,1,0-1.518l44.863-25.9a1.317,1.317,0,0,0,0-2.493l-4.347-2.51c.483-.727.922-1.483,1.35-2.255Z" transform="translate(-392.443 -606.41)" fill="#e2dfcf"/><path d="M389.621,632.793l44.863-25.9a10.593,10.593,0,0,1,9.573,0l3.478,2.008c-.428.772-.867,1.529-1.35,2.255l-4.756-2.746a4.781,4.781,0,0,0-4.318,0l-44.863,25.9a2.9,2.9,0,0,1-2.628,0A.8.8,0,0,1,389.621,632.793Z" transform="translate(-389.077 -605.749)" fill="#899eaa"/></g><path d="M389.082,620.63l0-63.084,47.014-26.208,6.575-.433,6.358,4.118,3.9,3.4-45.806,72.638-14.956,8.815Z" transform="translate(-389.077 -529.7)" fill="#899eaa"/><path d="M407.169,634.6l-14.052-8.113V565.518l14.486,6.733Z" transform="translate(-389.778 -535.701)" fill="#899eaa"/><path d="M458.5,540.585v62.981L409.151,631.8l-.659-.264V568.459Z" transform="translate(-392.443 -531.379)" fill="#e2dfcf"/><g transform="translate(3.339 3.702)"><path d="M428.081,539.951l9.808-5.635a4.813,4.813,0,0,1,4.06.122l9.1,5.256a1.39,1.39,0,0,1,.859,1.5L427.125,556l-19.909,12.22-14.1-8.179Z" transform="translate(-393.117 -533.927)" fill="#fff"/></g><path d="M410.268,573.107v65.12a2.635,2.635,0,0,1-1.233-.309.93.93,0,0,1-.542-.745l0,0V574.1Z" transform="translate(-392.443 -537.017)" fill="#899eaa"/><path d="M389.077,563.92v-.787h.251l.076.534Z" transform="translate(-389.077 -535.288)" fill="#fff"/><path d="M408.493,575.125v-.806l.242.342Z" transform="translate(-392.443 -537.227)" fill="#fff"/><g transform="translate(0)"><path d="M408.3,567.275l44.863-25.9c2.639-1.523,2.639-4,0-5.527l-9.1-5.256a10.6,10.6,0,0,0-9.573,0l-44.863,25.9a.8.8,0,0,0,0,1.517,2.9,2.9,0,0,0,2.628,0l44.863-25.9a4.781,4.781,0,0,1,4.318,0l9.1,5.257a1.316,1.316,0,0,1,0,2.492l-44.863,25.9a.8.8,0,0,0,0,1.517A2.9,2.9,0,0,0,408.3,567.275Z" transform="translate(-389.077 -529.448)" fill="#e2dfcf"/></g><path d="M426.473,603.606l23.313-13.46v-23.37l-23.313,13.46Z" transform="translate(-395.56 -535.919)" fill="#fff"/><g transform="translate(0.002 2.144)"><path d="M389.621,558.459a2.9,2.9,0,0,0,2.628,0l44.863-25.9a4.78,4.78,0,0,1,4.318,0l9.1,5.257c.78.45,1.045,1.084.8,1.662a1.806,1.806,0,0,0-.8-.831l-9.1-5.257a4.778,4.778,0,0,0-4.318,0l-44.863,25.9a2.9,2.9,0,0,1-2.628,0c-.55-.318-.68-.784-.4-1.174A1.252,1.252,0,0,0,389.621,558.459Z" transform="translate(-389.079 -532.042)" fill="#fff"/><path d="M409.036,569.283a2.9,2.9,0,0,0,2.628,0l44.863-25.9a3.62,3.62,0,0,0,1.938-2.348c.208,1.134-.436,2.311-1.938,3.178l-44.863,25.9a2.9,2.9,0,0,1-2.628,0c-.55-.317-.681-.784-.4-1.174A1.265,1.265,0,0,0,409.036,569.283Z" transform="translate(-392.445 -533.601)" fill="#fff"/></g><g transform="translate(20.625 12.211)"><g transform="translate(0 63.073)"><path d="M481.478,627.581c2.639,1.523,2.639,4,0,5.527l-44.863,25.9a2.9,2.9,0,0,1-2.628,0,.8.8,0,0,1,0-1.518l44.863-25.9a1.317,1.317,0,0,0,0-2.493l-4.347-2.51c.483-.727.922-1.483,1.35-2.255Z" transform="translate(-417.394 -621.182)" fill="#ff6b00"/><path d="M414.573,647.566l44.862-25.9a10.592,10.592,0,0,1,9.573,0l3.479,2.008c-.428.772-.867,1.529-1.35,2.255l-4.756-2.746a4.78,4.78,0,0,0-4.317,0l-44.862,25.9a2.9,2.9,0,0,1-2.628,0A.8.8,0,0,1,414.573,647.566Z" transform="translate(-414.028 -620.521)" fill="#bf4d00"/></g><path d="M414.033,635.4l0-63.084,47.014-26.208,6.575-.433,6.358,4.118,3.9,3.4L432.07,625.828l-14.955,8.815Z" transform="translate(-414.028 -544.472)" fill="#bf4d00"/><path d="M432.12,649.37l-14.052-8.113V580.289l14.486,6.734Z" transform="translate(-414.729 -550.473)" fill="#ef8741"/><path d="M483.456,555.357v62.981L434.1,646.568l-.658-.264V583.231Z" transform="translate(-417.394 -546.151)" fill="#ff6b00"/><g transform="translate(3.339 3.702)"><path d="M453.032,554.723l9.809-5.635a4.812,4.812,0,0,1,4.059.122l9.1,5.256a1.391,1.391,0,0,1,.859,1.5l-24.786,14.811-19.909,12.22-14.1-8.179Z" transform="translate(-418.068 -548.699)" fill="#fff"/></g><path d="M435.219,587.879V653a2.636,2.636,0,0,1-1.233-.309.929.929,0,0,1-.541-.745l0,0V588.869Z" transform="translate(-417.394 -551.789)" fill="#bf4d00"/><path d="M414.028,578.692v-.787h.251l.077.534Z" transform="translate(-414.028 -550.06)" fill="#fff"/><path d="M433.444,589.9v-.806l.242.342Z" transform="translate(-417.394 -551.999)" fill="#fff"/><g transform="translate(0)"><path d="M433.249,582.047l44.863-25.9c2.639-1.523,2.639-4,0-5.527l-9.1-5.256a10.6,10.6,0,0,0-9.573,0l-44.862,25.9a.8.8,0,0,0,0,1.517,2.9,2.9,0,0,0,2.628,0l44.862-25.9a4.78,4.78,0,0,1,4.317,0l9.1,5.257a1.316,1.316,0,0,1,0,2.492l-44.863,25.9a.8.8,0,0,0,0,1.517A2.9,2.9,0,0,0,433.249,582.047Z" transform="translate(-414.028 -544.22)" fill="#ff6b00"/></g><path d="M451.424,618.378l23.313-13.46V581.548l-23.313,13.46Z" transform="translate(-420.511 -550.691)" fill="#fff"/><g transform="translate(0.002 2.144)"><path d="M414.573,573.231a2.9,2.9,0,0,0,2.628,0l44.862-25.9a4.78,4.78,0,0,1,4.317,0l9.1,5.257c.78.45,1.045,1.084.8,1.661a1.81,1.81,0,0,0-.8-.831l-9.1-5.257a4.777,4.777,0,0,0-4.317,0l-44.862,25.9a2.9,2.9,0,0,1-2.628,0c-.551-.317-.681-.784-.4-1.174A1.246,1.246,0,0,0,414.573,573.231Z" transform="translate(-414.03 -546.814)" fill="#fff"/><path d="M433.987,584.055a2.9,2.9,0,0,0,2.628,0l44.863-25.9a3.62,3.62,0,0,0,1.938-2.348c.208,1.134-.436,2.311-1.938,3.178l-44.863,25.9a2.9,2.9,0,0,1-2.628,0c-.55-.317-.681-.784-.4-1.174A1.263,1.263,0,0,0,433.987,584.055Z" transform="translate(-417.396 -548.373)" fill="#fff"/></g></g><g transform="translate(41.819 25.261)"><g transform="translate(0 63.074)"><path d="M507.116,643.368c2.639,1.524,2.639,4,0,5.528l-44.862,25.9a2.9,2.9,0,0,1-2.628,0,.8.8,0,0,1,0-1.517l44.862-25.9a1.316,1.316,0,0,0,0-2.492l-4.347-2.51c.484-.727.922-1.483,1.351-2.255Z" transform="translate(-443.032 -636.97)" fill="#e2dfcf"/><path d="M440.211,663.353l44.863-25.9a10.6,10.6,0,0,1,9.573,0l3.478,2.009c-.429.772-.867,1.528-1.351,2.255l-4.756-2.746a4.775,4.775,0,0,0-4.318,0l-44.863,25.9a2.9,2.9,0,0,1-2.628,0A.8.8,0,0,1,440.211,663.353Z" transform="translate(-439.666 -636.309)" fill="#899eaa"/></g><path d="M439.671,651.19l0-63.084L486.681,561.9l6.575-.433,6.358,4.118,3.9,3.4-45.806,72.638-14.956,8.814Z" transform="translate(-439.667 -560.259)" fill="#899eaa"/><path d="M457.759,665.158l-14.052-8.113V596.077l14.486,6.734Z" transform="translate(-440.367 -566.26)" fill="#899eaa"/><path d="M509.095,571.144v62.981l-49.354,28.23-.659-.264V599.018Z" transform="translate(-443.032 -561.938)" fill="#e2dfcf"/><g transform="translate(3.339 3.702)"><path d="M478.671,570.511l9.808-5.636a4.816,4.816,0,0,1,4.06.122l9.1,5.256a1.392,1.392,0,0,1,.859,1.5L477.715,586.56l-19.909,12.22-14.1-8.18Z" transform="translate(-443.706 -564.486)" fill="#fff"/></g><path d="M460.858,603.667v65.12a2.643,2.643,0,0,1-1.232-.31.927.927,0,0,1-.542-.745l0,0V604.656Z" transform="translate(-443.032 -567.576)" fill="#899eaa"/><path d="M439.667,594.48v-.787h.251l.077.534Z" transform="translate(-439.667 -565.847)" fill="#fff"/><path d="M459.083,605.684v-.806l.242.342Z" transform="translate(-443.033 -567.786)" fill="#fff"/><path d="M458.888,597.834l44.862-25.9c2.639-1.523,2.639-4,0-5.527l-9.1-5.257a10.6,10.6,0,0,0-9.573,0l-44.863,25.9a.8.8,0,0,0,0,1.518,2.909,2.909,0,0,0,2.628,0l44.863-25.9a4.78,4.78,0,0,1,4.318,0l9.1,5.256a1.317,1.317,0,0,1,0,2.493l-44.862,25.9a.8.8,0,0,0,0,1.518A2.909,2.909,0,0,0,458.888,597.834Z" transform="translate(-439.666 -560.007)" fill="#e2dfcf"/><path d="M477.063,634.165l23.313-13.46v-23.37l-23.313,13.46Z" transform="translate(-446.15 -566.478)" fill="#fff"/><g transform="translate(0.002 2.145)"><path d="M440.211,589.019a2.908,2.908,0,0,0,2.628,0l44.863-25.9a4.78,4.78,0,0,1,4.317,0l9.1,5.256c.78.45,1.046,1.085.8,1.661a1.807,1.807,0,0,0-.8-.831l-9.1-5.256a4.781,4.781,0,0,0-4.317,0l-44.863,25.9a2.9,2.9,0,0,1-2.628,0c-.55-.317-.681-.784-.4-1.174A1.285,1.285,0,0,0,440.211,589.019Z" transform="translate(-439.668 -562.602)" fill="#fff"/><path d="M459.626,599.843a2.908,2.908,0,0,0,2.628,0l44.862-25.9a3.62,3.62,0,0,0,1.938-2.348c.208,1.135-.436,2.312-1.938,3.179l-44.862,25.9a2.9,2.9,0,0,1-2.628,0c-.551-.318-.681-.785-.4-1.174A1.266,1.266,0,0,0,459.626,599.843Z" transform="translate(-443.034 -564.161)" fill="#fff"/></g></g></g></g></g><g transform="translate(369.179 691.641)"><path d="M521.355,766.416a7.1,7.1,0,0,0-6.424,0l-82.863,47.859c-1.774,1.024-1.774,2.685,0,3.709a7.1,7.1,0,0,0,6.425,0l82.862-47.859C523.13,769.1,523.129,767.44,521.355,766.416Z" transform="translate(-415.326 -740.312)" fill="#193540" opacity="0.5"/><g transform="translate(0)"><path d="M556.358,735.176h0a.363.363,0,0,0-.389-.17l-5.013,1.086,1.974,3.359,3.388-3.851A.364.364,0,0,0,556.358,735.176Z" transform="translate(-436.168 -734.998)" fill="#e2dfcf"/><g transform="translate(59.909 0.554)"><path d="M551.168,737.77a2.5,2.5,0,0,0-1.15-1.955.819.819,0,0,0-.751-.093,32.013,32.013,0,0,0-16.483,4.413l-.362.212,6.226,10.592,1.838-1.219a32.023,32.023,0,0,0,9.609-9.963l.787-1.285A.819.819,0,0,0,551.168,737.77Z" transform="translate(-492.863 -735.668)" fill="#899eaa"/><path d="M539.636,749.037a9.6,9.6,0,0,0-4.4-7.489c-2.41-1.366-4.346-.229-4.324,2.541a9.6,9.6,0,0,0,4.4,7.49C537.722,752.944,539.658,751.807,539.636,749.037Z" transform="translate(-492.601 -736.587)" fill="#e2dfcf"/><path d="M493.711,774.941l36.951-23.02-6.226-10.592-38.082,21.1Z" transform="translate(-484.877 -736.649)" fill="#e2dfcf"/><path d="M494.878,775.958a11.348,11.348,0,0,0-5.2-8.85c-2.848-1.614-5.135-.269-5.109,3a11.344,11.344,0,0,0,5.2,8.85C492.616,780.575,494.9,779.231,494.878,775.958Z" transform="translate(-484.567 -741)" fill="#e2dfcf"/></g><g transform="translate(8.916 27.217)"><path d="M492.328,777.457a11.348,11.348,0,0,0-5.2-8.85c-2.848-1.614-5.135-.27-5.109,3a11.344,11.344,0,0,0,5.2,8.85C490.066,782.074,492.354,780.73,492.328,777.457Z" transform="translate(-433.131 -767.924)" fill="#e2dfcf"/><rect width="56.705" height="14.517" transform="translate(1.478 29.087) rotate(-30.447)" fill="#e2dfcf"/><path d="M433.19,812.218a11.345,11.345,0,0,0-5.2-8.85c-2.848-1.615-5.135-.27-5.109,3a11.344,11.344,0,0,0,5.2,8.85C430.928,816.835,433.216,815.491,433.19,812.218Z" transform="translate(-422.879 -773.95)" fill="#e2dfcf"/><path d="M431.731,811.725a7.5,7.5,0,0,0-3.515-5.375c-1.828-1.037-3.219-.311-3.106,1.621a7.5,7.5,0,0,0,3.515,5.375C430.452,814.383,431.843,813.657,431.731,811.725Z" transform="translate(-423.264 -774.503)" fill="#5f7884"/></g><g transform="translate(57.51 25.091)"><path d="M495.759,775.553a11.345,11.345,0,0,0-5.2-8.85,4,4,0,0,0-3.049-.57c.924-.966,2.44-1.08,4.165-.1a11.344,11.344,0,0,1,5.2,8.85c.016,1.954-.8,3.214-2.059,3.573A4.055,4.055,0,0,0,495.759,775.553Z" transform="translate(-482.678 -765.351)" fill="#fff"/><path d="M495.056,775.694a11.344,11.344,0,0,0-5.2-8.85,3.605,3.605,0,0,0-3.632-.331l-2.769,1.628,1.319,2.245a11.593,11.593,0,0,0,4.717,8.025l1.32,2.245,2.77-1.628h0A3.606,3.606,0,0,0,495.056,775.694Z" transform="translate(-481.975 -765.491)" fill="#899eaa"/><path d="M491.976,777.664a11.342,11.342,0,0,0-5.2-8.85c-2.847-1.614-5.135-.27-5.109,3a11.348,11.348,0,0,0,5.2,8.85C489.715,782.281,492,780.936,491.976,777.664Z" transform="translate(-481.665 -765.833)" fill="#e2dfcf"/></g><g transform="translate(0 60.34)"><path d="M427.174,813.576l-3.174-5.4-10.361,6.091a3.132,3.132,0,0,0-1.113,4.287h0a3.133,3.133,0,0,0,4.287,1.113Z" transform="translate(-412.093 -808.025)" fill="#ff6b00"/><path d="M430.175,812.106a4.893,4.893,0,0,0-2.244-3.818c-1.228-.7-2.215-.117-2.2,1.3a4.894,4.894,0,0,0,2.244,3.818C429.2,814.1,430.186,813.518,430.175,812.106Z" transform="translate(-414.457 -807.993)" fill="#ff6b00"/></g><g transform="translate(13.249 29.838)"><path d="M442.107,786.648l-1.553-.881a3.307,3.307,0,0,0-3.324.356l-5.324,3.13a4.054,4.054,0,0,0-1.807,3.186l.021,2.665a2.184,2.184,0,0,1-.536,1.339l.2,1.234-1.327-.761,0,0a.681.681,0,0,1-.317-.648l-.021-2.665a8.452,8.452,0,0,1,3.766-6.643l5.324-3.13c1.779-1.046,3.458-1.225,4.727-.506l1.553.881a3.305,3.305,0,0,0,3.324-.355l21.464-12.616a.691.691,0,0,1,.709-.069v0l1.325.759-1.134.436a2.194,2.194,0,0,1-.882,1.17l-21.463,12.615C445.054,787.189,443.376,787.368,442.107,786.648Z" transform="translate(-428.121 -771.094)" fill="#899eaa"/><path d="M442.18,786.7a3.307,3.307,0,0,0-3.323.355l-5.325,3.13a4.051,4.051,0,0,0-1.806,3.186l.021,2.665a2.2,2.2,0,0,1-.98,1.728c-.546.322-.993.068-1-.565l-.022-2.665a8.452,8.452,0,0,1,3.767-6.643l5.324-3.13c1.779-1.046,3.458-1.225,4.728-.506l1.553.882a3.308,3.308,0,0,0,3.324-.356l21.463-12.616c.546-.321.993-.067,1,.566a2.2,2.2,0,0,1-.98,1.729l-21.463,12.616c-1.78,1.046-3.459,1.225-4.728.505Z" transform="translate(-428.403 -771.255)" fill="#899eaa"/><g transform="translate(3.255 21.881)"><path d="M432.059,798.236l.021,2.665c0,.017-.007.037-.008.055a1.691,1.691,0,0,0,.075-.494l-.021-2.665c0-.075.012-.155.017-.232A3.053,3.053,0,0,0,432.059,798.236Z" transform="translate(-432.059 -797.564)" fill="#fff"/></g></g></g></g><g transform="translate(347.913 666.944)"><ellipse cx="16.852" cy="9.729" rx="16.852" ry="9.729" transform="translate(2.32 15.043)" fill="#193540" opacity="0.5"/><path d="M424.71,722.312v-5.383h-1.017a12.245,12.245,0,0,0-4.6-4.3c-7.488-4.323-19.627-4.323-27.114,0a12.238,12.238,0,0,0-4.6,4.3h-1.015v5.354h0c-.013,2.843,1.857,5.687,5.613,7.856,7.487,4.322,19.626,4.322,27.113,0C422.839,727.978,424.71,725.145,424.71,722.312Z" transform="translate(-386.367 -705.86)" fill="#ff6b00"/><ellipse cx="19.172" cy="11.069" rx="19.172" ry="11.069" fill="#ff6b00"/><path d="M419.1,726.412c-7.487,4.322-19.626,4.322-27.113,0-3.588-2.071-5.438-4.76-5.586-7.475-.162,2.949,1.687,5.929,5.586,8.18,7.487,4.322,19.626,4.322,27.113,0,3.9-2.251,5.748-5.23,5.586-8.179C424.537,721.652,422.687,724.341,419.1,726.412Z" transform="translate(-386.371 -707.516)" fill="#fff"/><g transform="translate(9.426 5.821)"><path d="M398.275,721.076a.865.865,0,0,1-.506-.707l.02-7.212c0-.55.775-1,1.728-.994s1.723.447,1.723,1l-.017,5.98,17.356-2.124c.933-.115,1.848.229,2.046.767s-.4,1.067-1.329,1.181l-19.442,2.381a2.728,2.728,0,0,1-1.446-.2C398.361,721.123,398.317,721.1,398.275,721.076Z" transform="translate(-397.769 -712.163)" fill="#fff"/></g></g><g transform="translate(253.758 578.79)"><path d="M286.708,647.452l-14.244-8.224L286.708,631l14.244,8.224Z" transform="translate(-272.464 -604.118)" fill="#193540" opacity="0.5"/><path d="M303.939,624.873,289.7,633.1V616.65l14.243-8.223Z" transform="translate(-275.452 -600.204)" fill="#bf4d00"/><path d="M286.708,614.926,272.465,606.7l14.243-8.223,14.243,8.223Z" transform="translate(-272.464 -598.479)" fill="#ff6b00"/><path d="M286.708,633.1l-14.243-8.224V608.427l14.243,8.223Z" transform="translate(-272.464 -600.204)" fill="#ff6b00"/><path d="M282.654,626.075l-3.984-2.3v-4.6l3.984,2.3Z" transform="translate(-273.54 -602.067)" fill="#fff"/></g><g transform="translate(164.563 724.459)"><path d="M179.392,825.683l-14.829-8.561,14.828-8.561,14.829,8.561Z" transform="translate(-164.563 -780.569)" fill="#193540" opacity="0.5"/><path d="M197.33,802.177,182.5,810.738V793.616l14.829-8.561Z" transform="translate(-167.673 -776.494)" fill="#193540"/><path d="M179.392,791.821l-14.829-8.561,14.828-8.561,14.828,8.561Z" transform="translate(-164.563 -774.698)" fill="#e2dfcf"/><path d="M179.392,810.738l-14.829-8.561V785.055l14.829,8.561Z" transform="translate(-164.563 -776.494)" fill="#899eaa"/><path d="M175.171,803.428l-4.147-2.395v-4.789l4.147,2.395Z" transform="translate(-165.683 -778.434)" fill="#fff"/></g><path d="M235.96,791.376l-55.259-31.9a1.863,1.863,0,0,1,0-3.226l52.542-30.332,58.787,33.941a1.863,1.863,0,0,1,0,3.226l-49.014,28.295A7.055,7.055,0,0,1,235.96,791.376Z" transform="translate(-2.637 -41.782)" fill="#193540" opacity="0.5"/><g transform="translate(173.006 658.077)"><path d="M233.5,698.329c0-3.508-2.468-4.938-5.509-3.187l-51.681,29.777a3.344,3.344,0,0,0-1.515,2.619c0,.965.676,1.356,1.512.875l51.681-29.776c1.371-.79,2.486-.145,2.485,1.437l-.006,5.78c1-.062,2.01-.064,3.026-.046Z" transform="translate(-174.781 -694.394)" fill="#ff6b00"/><path d="M176.289,741.2l51.681-18.832a12.2,12.2,0,0,0,5.52-9.541l0-4.625c-1.017-.018-2.023-.016-3.026.046l0,6.324a5.5,5.5,0,0,1-2.49,4.3L176.292,737.7a3.346,3.346,0,0,0-1.515,2.62C174.776,741.287,175.453,741.678,176.289,741.2Z" transform="translate(-174.777 -696.786)" fill="#bf4d00"/><path d="M175.25,747.1l62.868,36.378,53.227-31.743,4.223-6.3-.438,2.233L294,741.815l-98.8,3.769-17.408-1.121Z" transform="translate(-174.859 -702.615)" fill="#bf4d00"/><path d="M177.769,734.923l-.017,7.739,60.762,35.153,1.642-7.376Z" transform="translate(-175.293 -701.42)" fill="#ef8741"/><path d="M294.8,731.19l-62.768-36.315-56.592,32.91-.117.808,62.861,36.368Z" transform="translate(-174.871 -694.477)" fill="#ff6b00"/><g transform="translate(63.199 39.613)"><path d="M287.947,758.062l14.758-8.754a5.541,5.541,0,0,0,2.219-4.116l.012-1.16a1.6,1.6,0,0,0-1-1.718l-29.051,16.161-23.658,12.8.021,7.825Z" transform="translate(-251.231 -742.315)" fill="#fff"/></g><path d="M240.1,770.335l-62.37-36.084-1.322-.765-1.208-.7a3.038,3.038,0,0,0-.4,1.407,1.067,1.067,0,0,0,.43.97v0l.01.006,0,0,62.846,36.359Z" transform="translate(-174.781 -701.05)" fill="#bf4d00"/><path d="M250.355,791.625l.784.453.144-.25-.488-.384Z" transform="translate(-187.88 -711.22)" fill="#fff"/><path d="M250.38,779.089l.8.465-.2-.439Z" transform="translate(-187.884 -709.077)" fill="#fff"/><g transform="translate(62.86 36.368)"><path d="M252.355,768.914l51.681-29.777c3.04-1.752,5.511-.322,5.509,3.187l-.012,1.16a12.2,12.2,0,0,1-5.519,9.54L252.333,782.8c-.836.481-1.514.089-1.513-.875a3.346,3.346,0,0,1,1.515-2.62l51.682-29.776a5.5,5.5,0,0,0,2.489-4.3l.011-1.16c0-1.582-1.113-2.227-2.484-1.437l-51.681,29.776c-.836.482-1.513.09-1.512-.875A3.341,3.341,0,0,1,252.355,768.914Z" transform="translate(-250.82 -738.389)" fill="#ff6b00"/></g><g transform="translate(62.032 35.89)"><path d="M250.646,782.748a3.349,3.349,0,0,1,1.515-2.62l51.682-29.776a5.5,5.5,0,0,0,2.489-4.3l.011-1.16c0-1.036-.478-1.667-1.192-1.759a2.089,2.089,0,0,1,.365,1.28l-.011,1.159a5.5,5.5,0,0,1-2.49,4.3L251.334,779.65a3.344,3.344,0,0,0-1.515,2.619c0,.731.389,1.131.941,1.073A1.458,1.458,0,0,1,250.646,782.748Z" transform="translate(-249.819 -738.733)" fill="#fff"/><path d="M250.67,771.433a3.343,3.343,0,0,1,1.515-2.619l51.681-29.777a4.167,4.167,0,0,1,3.458-.578c-1.01-.862-2.555-.9-4.286.1l-51.681,29.776a3.346,3.346,0,0,0-1.515,2.619c0,.732.389,1.131.941,1.073A1.443,1.443,0,0,1,250.67,771.433Z" transform="translate(-249.823 -737.811)" fill="#fff"/></g><path d="M221.928,736.226,250.443,719.8l24.73,14.308-28.515,16.429Z" transform="translate(-182.951 -698.798)" fill="#fff"/></g><g transform="translate(269.225 716.343)"><path d="M305.439,829.754c11.416,6.591,29.924,6.591,41.34,0s11.417-17.277,0-23.867-29.924-6.591-41.34,0S294.025,823.164,305.439,829.754Zm11.169-17.42c5.247-3.03,13.755-3.03,19,0s5.247,7.941,0,10.971-13.756,3.03-19,0S311.361,815.364,316.609,812.335Z" transform="translate(-292.165 -771.133)" fill="#193540" opacity="0.5"/><g transform="translate(8.472)"><path d="M351.88,798.905l-10.427.163a11.09,11.09,0,0,0-3.293-2.769c-5.734-3.311-14.751-3.566-21-.772l-6.2-5.827-9.541.149c.471-.309.956-.613,1.466-.908,13.259-7.655,34.756-7.655,48.014,0a25.2,25.2,0,0,1,5.966,4.648Z" transform="translate(-301.425 -768.057)" fill="#bf4d00"/><path d="M301.425,772.893v15.142l9.541-.149V772.744Z" transform="translate(-301.425 -766.244)" fill="#bf4d00"/><path d="M319.163,778.572v15.142l-6.2-5.827V772.744Z" transform="translate(-303.426 -766.244)" fill="#bf4d00"/><path d="M344.753,782.345v15.142l-13.717-11.178-10.574,7.636V778.8l9.737-4.723s13.4,4.1,14.1,4.277S344.753,782.345,344.753,782.345Z" transform="translate(-304.725 -766.476)" fill="#bf4d00"/><path d="M360.275,783.881v15.142l-10.427.163V784.044Z" transform="translate(-309.82 -768.175)" fill="#bf4d00"/><path d="M367.453,777.449v15.142l-4.991,5.318V782.766Z" transform="translate(-312.007 -767.06)" fill="#bf4d00"/><path d="M351.88,780.587l-10.427.163a11.088,11.088,0,0,0-3.293-2.769c-5.734-3.311-14.751-3.566-21-.772l-6.2-5.828-9.541.149c.471-.308.956-.613,1.466-.908,13.259-7.655,34.756-7.655,48.014,0a25.2,25.2,0,0,1,5.966,4.648Z" transform="translate(-301.425 -764.881)" fill="#ff6b00"/></g><g transform="translate(0 9.058)"><path d="M314.77,782.047v13.92l-9.026-2.162s.53-8.145.722-8.362S314.77,782.047,314.77,782.047Z" transform="translate(-293.702 -776.915)" fill="#899eaa"/><path d="M323.387,798.886v15.142l-.975,1.039-6.363-3.669s.986-11.559,1.1-11.791S323.387,798.886,323.387,798.886Z" transform="translate(-295.488 -779.835)" fill="#193540"/><path d="M306.788,794.157l5.457,5.132c-4.546,3.6-4.008,8.667,1.615,11.913a19.355,19.355,0,0,0,5.215,2.006l-5.64,6.01,5,4.7a45.4,45.4,0,0,1-17.319-5.357c-11.4-6.58-12.987-16.673-4.789-24.24Z" transform="translate(-291.176 -779.015)" fill="#5f7884"/><path d="M318.432,807.665v15.142l-12.374-4.778-14.882-14.2.055-16.079,15.745,12.48Z" transform="translate(-291.176 -777.904)" fill="#5f7884"/><path d="M306.788,775.839l5.457,5.132c-4.546,3.6-4.008,8.666,1.615,11.913a19.387,19.387,0,0,0,5.215,2.006l-5.64,6.009,5,4.7a45.394,45.394,0,0,1-17.319-5.357c-11.4-6.58-12.987-16.673-4.789-24.241Z" transform="translate(-291.176 -775.839)" fill="#e2dfcf"/></g><g transform="translate(27.296 13.336)"><path d="M324.2,820.036l4.971-5.3a23.77,23.77,0,0,0,12.938-2.64c3.654-2.11,5.158-4.989,4.52-7.733l11.837-.184,4.552-4.849c3.982,6.833,1.266,14.681-8.164,20.125-6.929,4-16.106,5.905-25.182,5.725Z" transform="translate(-324.197 -784.19)" fill="#5f7884"/><path d="M330.818,808.2v15.142l35.118-19.461v-15.15l-5.128,2.073Z" transform="translate(-325.345 -782.353)" fill="#5f7884"/><path d="M324.2,806.06V821.2l5.473,5.147V811.207Z" transform="translate(-324.197 -785.356)" fill="#193540"/><path d="M324.2,801.718l4.971-5.3a23.771,23.771,0,0,0,12.938-2.64c3.654-2.11,5.158-4.989,4.52-7.733l11.837-.184,4.552-4.85c3.982,6.834,1.266,14.682-8.164,20.126-6.929,4-16.106,5.906-25.182,5.725Z" transform="translate(-324.197 -781.014)" fill="#899eaa"/></g></g></g><g transform="translate(3086.574 83.749)"><path d="M-2818.487,1626.251a7.609,7.609,0,0,0-7.594,7.625,7.609,7.609,0,0,0,7.625,7.594,7.61,7.61,0,0,0,7.594-7.609,7.616,7.616,0,0,0-7.623-7.609Zm9.917,17.567-.007,6.97-6.143-6.966h-5.792v10.227h4.25l.061-6.776,5.919,6.772,5.95.021.052-10.216-4.3-.027Zm-26.146,0h0l-.081,10.239,12.361-.014.011-2.279-7.841-.007.032-1.93,6.972-.031v-2.182l-6.942.129v-1.612l7.517-.02.014-2.281-12.042-.01Zm42.644,0H-2797l-6.979,10.233h4.434l1.06-1.953,7.19.035,1.068,1.913h4.76Zm-51,0h-.806a14.67,14.67,0,0,0-2.373.118,8.129,8.129,0,0,0-2.825.789,2.175,2.175,0,0,0-1.407,2.006,2.18,2.18,0,0,0,.23,1.091,1.625,1.625,0,0,0,.283.425,4.373,4.373,0,0,0,2.358,1.177,33.431,33.431,0,0,0,3.382.677,13.889,13.889,0,0,1,2.047.416,2.316,2.316,0,0,1,.83.425.446.446,0,0,1-.07.627l-.015.012a2.371,2.371,0,0,1-1.2.425,10.634,10.634,0,0,1-2.141-.027c-.824-.124-1.33-.4-1.441-.788a1.989,1.989,0,0,1-.042-.331l-.014-.237-.316-.007c-.174,0-1.166,0-2.2.007l-1.888.014v.142a4.078,4.078,0,0,0,.095.735c.268,1.109,1.133,1.806,2.692,2.189a14.541,14.541,0,0,0,2.063.312c.694.051,2.108.07,3.016.037,3.215-.118,5.384-.884,6.04-2.135a2.061,2.061,0,0,0,.241-.992,2.109,2.109,0,0,0-.381-1.252,3.237,3.237,0,0,0-1.683-1.186,16.982,16.982,0,0,0-3.447-.786,19.371,19.371,0,0,1-2.833-.567,1.663,1.663,0,0,1-.83-.49.471.471,0,0,1,0-.35c.115-.252.635-.443,1.356-.5a9.011,9.011,0,0,1,1.672.05,2.432,2.432,0,0,1,1.187.441,1.082,1.082,0,0,1,.235.445c.025.1.044.13.075.142s.966.007,2.1.007l2.055-.007.007-.125a2.427,2.427,0,0,0-.1-.67c-.34-1.155-1.6-1.85-3.844-2.132a14.658,14.658,0,0,0-2.105-.112Zm48.281,2.516,2.209,3.72-4.546-.027Zm-26.493,9.888-32.567.024v5.415h10.5c10.059,0,10.5,0,10.808.149a1.312,1.312,0,0,1,.708,1.17c.078.863.217-.042-7.859,14.046l-4.792,8.225,3.87,3.639,19.332-32.666Zm5.069.028,19.357,32.576,3.943-3.593-4.857-8.248c-8.095-13.9-7.943-13.217-7.866-14.067a1.292,1.292,0,0,1,.708-1.155c.3-.142.75-.142,10.835-.142h10.522v-5.344l-32.646-.024Zm-2.622,5.7-17.618,29.961,4.586,2.173,10.039-17.114,1.68-3.012c.218-.392.484-.543,1.289-.546a1.4,1.4,0,0,1,1.3.537l1.851,3.093,10.261,17.212,4.685-2.642-18.072-29.662Z" fill="#ff6b00" fill-rule="evenodd"/></g></g></svg>