<svg xmlns="http://www.w3.org/2000/svg" width="117.174" height="110.249" viewBox="0 0 117.174 110.249"><g transform="translate(-1161 -2418)"><g transform="translate(1161 2418)"><circle cx="44.979" cy="44.979" r="44.979" transform="translate(13.608 10.146)" fill="#ffaf0d"/><rect width="117.174" height="110.249" fill="none"/></g><g transform="translate(1193 2448)" style="mix-blend-mode:hard-light;isolation:isolate"><path d="M399.814,199.944v28.205a1.763,1.763,0,0,0,1.763,1.763h44.07a1.763,1.763,0,0,0,1.763-1.763V199.944Z" transform="translate(-397.19 -195.537)" fill="#bdfdff"/><path d="M433.173,167.944a1.763,1.763,0,1,1,0,3.526h-47.6a1.763,1.763,0,0,1,0-3.526Z" transform="translate(-382.953 -167.063)" fill="#c0ab91"/><path d="M797.984,169.707a1.776,1.776,0,0,1-1.763,1.763h-4.407a1.763,1.763,0,0,0,0-3.526h4.407A1.768,1.768,0,0,1,797.984,169.707Z" transform="translate(-746.001 -167.063)" fill="#a78966"/><path d="M555.272,271.944v14.1H543.814v-1.763l7.933-1.763V271.944Z" transform="translate(-525.325 -259.604)" fill="#c0ab91"/><path d="M615.814,271.944h3.526v14.1h-3.526Z" transform="translate(-589.392 -259.604)" fill="#a78966"/><ellipse cx="2.644" cy="2.644" rx="2.644" ry="2.644" transform="translate(23.778 46.715)" fill="#ff3051"/><path d="M607.78,586.571a2.644,2.644,0,0,1-3.966,2.292,2.644,2.644,0,0,0,0-4.583,2.644,2.644,0,0,1,3.966,2.292Z" transform="translate(-578.714 -537.213)" fill="#cd2a00"/><path d="M551.747,257.707v10.577l-7.933,1.763v-12.34l7.933-1.763Z" transform="translate(-525.325 -245.367)" fill="#fee9ab"/><path d="M551.747,255.944v12.34l-7.933,1.763v-.784l4.407-.978V256.728Z" transform="translate(-525.325 -245.367)" fill="#ffde55"/><path d="M451.272,284.284v1.763H439.814v-14.1h3.526v10.577Z" transform="translate(-432.783 -259.604)" fill="#c0ab91"/><path d="M479.747,257.707v12.34l-7.933-1.763v-12.34Z" transform="translate(-461.258 -245.367)" fill="#fee9ab"/><path d="M424.628,524.351v3.526a4.407,4.407,0,1,1-8.814,0v-3.526a4.407,4.407,0,1,1,8.814,0Z" transform="translate(-411.427 -480.281)" fill="#c6c5ca"/><path d="M445.984,524.351v3.526a4.407,4.407,0,0,1-4.407,4.407,4.5,4.5,0,0,1-1.763-.361,4.433,4.433,0,0,0,2.644-4.046v-3.526a4.427,4.427,0,0,0-1.287-3.12,4.523,4.523,0,0,0-1.357-.925,4.5,4.5,0,0,1,1.763-.361,4.394,4.394,0,0,1,4.407,4.381Z" transform="translate(-432.783 -480.281)" fill="#acabb1"/><path d="M709.917,317.232h-1.763l-2.644-1.763-4.407,1.763-.881-1.763-2.644,1.763h-1.763a7.064,7.064,0,0,1,2.062-4.989c.106-.106.212-.2.326-.3h9.325c.115.1.22.194.326.3A7.064,7.064,0,0,1,709.917,317.232Z" transform="translate(-660.578 -295.197)" fill="#ffcd00"/><path d="M752.628,303h-1.763l-1.877-1.252a7.071,7.071,0,0,0-1.948-3.737,7.159,7.159,0,0,0-3.226-1.842,7.264,7.264,0,0,1,1.763-.22,7.042,7.042,0,0,1,7.051,7.032Z" transform="translate(-703.29 -280.96)" fill="#ebbf00"/><path d="M797.984,463.944v18.51h-6.17V466.747Z" transform="translate(-746.001 -430.451)" fill="#c0ab91"/><path d="M769.51,449.707l-6.17,2.8-3.526,1.6,1.763-6.17Z" transform="translate(-717.527 -416.213)" fill="#ff3051"/><path d="M697.442,234.588l-3.526,1.058-5.288,1.587-5.288-1.587-3.526-1.058,8.814-2.644,4.407,1.322Z" transform="translate(-646.341 -224.011)" fill="#ff3051"/><path d="M722.391,345.707v1.763a5.288,5.288,0,0,1-10.577,0v-1.763l2.644-1.763.881,1.763,4.407-1.763Z" transform="translate(-674.815 -323.672)" fill="#ffc477"/><path d="M722.391,265.544v5.112H711.814v-5.112l5.288,1.587Z" transform="translate(-674.815 -253.909)" fill="#d43237"/><path d="M763.34,489.384v15.707h-3.526v-14.1Z" transform="translate(-717.527 -453.088)" fill="#ff3051"/><path d="M747.34,421.144V424.1l-1.763,6.17-1.763-6.17v-2.953A5.19,5.19,0,0,0,747.34,421.144Z" transform="translate(-703.29 -392.366)" fill="#ffc477"/><path d="M731.34,490.988v14.1h-3.526V489.384Z" transform="translate(-689.053 -453.088)" fill="#ff3051"/><path d="M679.747,447.944l1.763,6.17-3.526-1.6-6.17-2.8Z" transform="translate(-639.222 -416.213)" fill="#ff3051"/><path d="M677.984,466.747v15.707h-6.17v-18.51Z" transform="translate(-639.222 -430.451)" fill="#c0ab91"/><path d="M819.34,463.944v18.51h-3.526V465.548Z" transform="translate(-767.357 -430.451)" fill="#a78966"/><path d="M779.048,449.707l-3.182,1.445-5.333-1.181.582-2.027Z" transform="translate(-727.066 -416.213)" fill="#cd2a00"/><path d="M750.865,345.707v1.763a5.272,5.272,0,0,1-3.526,4.98,5.19,5.19,0,0,1-3.526,0,5.272,5.272,0,0,0,3.526-4.98v-1.763l-1.322-.881,2.2-.881Z" transform="translate(-703.29 -323.672)" fill="#ffa733"/><path d="M749.906,234.588l-2.794.837-8.338-2.785,2.318-.7Z" transform="translate(-698.805 -224.011)" fill="#cd2a00"/><path d="M779.34,265.544v5.112h-3.526V266.6Z" transform="translate(-731.764 -253.909)" fill="#ab2300"/><path d="M447.814,543.944h1.763v3.526h-1.763Z" transform="translate(-439.902 -501.636)"/><path d="M428.177,192.574l-1.075-.238v-20.9l.256-.07a.881.881,0,0,0,0-1.692l-.256-.071v-4.53a2.644,2.644,0,0,0-.881-5.13h-47.6a2.644,2.644,0,0,0-.881,5.13v27.482a2.652,2.652,0,0,0,2.644,2.644h3.526v3.6a5.3,5.3,0,0,0-4.407,5.209v3.526a5.288,5.288,0,1,0,10.577,0v-3.526a5.3,5.3,0,0,0-4.407-5.209v-3.6h15.865v10.7a3.526,3.526,0,1,0,1.763,0V195.2h4.407v16.747a.881.881,0,0,0,.881.881h19.391a.881.881,0,0,0,.881-.881v-18.51A.888.888,0,0,0,428.177,192.574Zm-50.434-29.985a.881.881,0,0,1,.881-.881h47.6a.881.881,0,1,1,0,1.763h-47.6A.881.881,0,0,1,377.743,162.588Zm10.577,41.426v3.526a3.526,3.526,0,0,1-7.051,0v-3.526a3.526,3.526,0,0,1,7.051,0Zm15.865,5.288a1.763,1.763,0,1,1-1.763-1.763A1.763,1.763,0,0,1,404.185,209.3Zm4.213-16.729a.888.888,0,0,0-.687.864H385.675v-2.644h8.814a.881.881,0,0,0,.881-.881v-2.644h10.577a.881.881,0,0,0,.881-.881v-14.1a.881.881,0,0,0-.881-.881H403.3v-.881a.9.9,0,0,0-.326-.687.914.914,0,0,0-.749-.176l-7.739,1.728-7.739-1.728a.914.914,0,0,0-.749.176.9.9,0,0,0-.326.688v.881h-2.644a.881.881,0,0,0-.881.881v14.1a.881.881,0,0,0,.881.881h10.577v1.763h-8.814a.881.881,0,0,0-.881.881v3.526h-3.526a.881.881,0,0,1-.881-.881V165.232h45.833v3.843l-6.8-2.045a1,1,0,0,0-.511,0l-8.814,2.644a.881.881,0,0,0,0,1.692l2.9.864v4.46a.719.719,0,0,0,.053.238,7.871,7.871,0,0,0-1.816,5.05.881.881,0,0,0,.881.881h.881v.881a6.17,6.17,0,0,0,3.526,5.562v1.666Zm-22.035-8.849,7.245,1.6v.176h-9.7v-12.34h1.763v9.7A.894.894,0,0,0,386.363,183.724Zm1.075-1.569V171.623l6.17,1.366v10.533Zm15.178,1.569a.9.9,0,0,0,.688-.864v-9.7h1.763V185.5h-9.7v-.176Zm-7.245-.2V172.989l6.17-1.366v10.533Zm18.509.22v-1.287l1.419-.952.441.873a.881.881,0,0,0,1.111.423l3.975-1.6,1.869,1.252v1.287a4.407,4.407,0,1,1-8.814,0Zm3.032,12.507-5.553-2.521,4.548-1.014Zm1.375-24-5.747-1.728,5.747-1.728,5.747,1.728Zm4.407.511v3.05H413.88v-3.05l4.151,1.252a.944.944,0,0,0,.511,0Zm-8.77,4.857c.009-.018.026-.026.044-.044h8.638c.018.009.026.026.044.035a6.177,6.177,0,0,1,1.745,3.49h-.555l-2.424-1.613a.86.86,0,0,0-.811-.088l-3.658,1.463-.52-1.04a.9.9,0,0,0-.555-.458.881.881,0,0,0-.714.123l-2.424,1.613h-.555a6.151,6.151,0,0,1,1.745-3.482Zm6.743,15.1,4.548,1.014-5.553,2.521Zm.264-1.745V189.3a6.17,6.17,0,0,0,3.526-5.562v-.881h.881v9.087Zm3.473-14.041a.721.721,0,0,0,.053-.238v-4.46l.881-.264v6.381A7.445,7.445,0,0,0,424.4,176.929ZM413.88,211.066h-4.407V194.8l4.407,2.01Zm3.526,0h-1.763V197.607l1.763.8Zm0-19.514v-1.71a5.54,5.54,0,0,0,1.763,0v1.71l-.881,3.085Zm3.526,19.514h-1.763V198.409l1.763-.8Zm6.17,0h-4.407V196.813l4.407-2.01Z" transform="translate(-376 -159.944)"/></g></g></svg>