<svg xmlns="http://www.w3.org/2000/svg" width="117.174" height="110.249" viewBox="0 0 117.174 110.249"><g transform="translate(-741 -2418)"><g transform="translate(741 2418)"><circle cx="44.979" cy="44.979" r="44.979" transform="translate(13.608 10.146)" fill="#ffaf0d"/><rect width="117.174" height="110.249" fill="none"/></g><g transform="translate(773 2448)" style="mix-blend-mode:hard-light;isolation:isolate"><path d="M75.121,312v3.526a3.526,3.526,0,0,1-3.526,3.526H27.526A3.526,3.526,0,0,1,24,315.526V312Z" transform="translate(-23.119 -279.388)" fill="#898890"/><path d="M256,168h25.561v15.865H256Z" transform="translate(-229.558 -151.253)" fill="#bdfdff"/><path d="M256,39.865V24h22.035a3.526,3.526,0,0,1,3.526,3.526v12.34Z" transform="translate(-229.558 -23.118)" fill="#57a4ff"/><path d="M456,168h3.526v15.865H456Z" transform="translate(-407.523 -151.253)" fill="#00e7f0"/><path d="M431.051,27.526v12.34h-3.526V27.526A3.526,3.526,0,0,0,424,24h3.526A3.526,3.526,0,0,1,431.051,27.526Z" transform="translate(-379.048 -23.118)" fill="#006df0"/><path d="M338.577,267.526v1.763H328v-1.763A3.526,3.526,0,0,1,331.526,264h3.526A3.526,3.526,0,0,1,338.577,267.526Z" transform="translate(-293.625 -236.676)" fill="#ff3051"/><path d="M338.577,123.526v1.763H328v-1.763A3.526,3.526,0,0,1,331.526,120h3.526A3.526,3.526,0,0,1,338.577,123.526Z" transform="translate(-293.625 -108.541)" fill="#9cdd05"/><path d="M357.288,202.644v1.763a2.644,2.644,0,1,1-5.288,0v-1.763a2.644,2.644,0,1,1,5.288,0Z" transform="translate(-314.981 -179.727)" fill="#ffc477"/><path d="M357.288,58.644v1.763a2.644,2.644,0,1,1-5.288,0V58.644a2.644,2.644,0,1,1,5.288,0Z" transform="translate(-314.981 -51.593)" fill="#ffc477"/><path d="M374.17,123.526v1.763h-2.644v-1.763A3.526,3.526,0,0,0,368,120h2.644A3.526,3.526,0,0,1,374.17,123.526Z" transform="translate(-329.218 -108.541)" fill="#5eac24"/><path d="M367.966,58.644v1.763A2.644,2.644,0,0,1,364,62.7a2.644,2.644,0,0,0,1.322-2.292V58.644a2.638,2.638,0,0,0-.776-1.869,2.905,2.905,0,0,0-.546-.423,2.647,2.647,0,0,1,3.966,2.292Z" transform="translate(-325.659 -51.593)" fill="#ffa733"/><path d="M374.17,267.526v1.763h-2.644v-1.763A3.526,3.526,0,0,0,368,264h2.644A3.526,3.526,0,0,1,374.17,267.526Z" transform="translate(-329.218 -236.676)" fill="#cd2a00"/><path d="M367.966,202.644v1.763A2.644,2.644,0,0,1,364,206.7a2.644,2.644,0,0,0,1.322-2.292v-1.763a2.638,2.638,0,0,0-.776-1.869,2.905,2.905,0,0,0-.546-.423,2.647,2.647,0,0,1,3.966,2.292Z" transform="translate(-325.659 -179.727)" fill="#ffa733"/><path d="M168.679,441.763v3.526H144v-3.526A1.768,1.768,0,0,1,145.763,440h21.154A1.768,1.768,0,0,1,168.679,441.763Z" transform="translate(-129.897 -393.285)" fill="#898890"/><path d="M216,376h8.814v7.051H216Z" transform="translate(-193.965 -336.336)" fill="#c6c5ca"/><path d="M24,168H49.561v15.865H24Z" transform="translate(-23.119 -151.253)" fill="#2488ff"/><path d="M24,39.865V27.526A3.526,3.526,0,0,1,27.526,24H49.561V39.865Z" transform="translate(-23.119 -23.118)" fill="#46f8ff"/><ellipse cx="1.951" cy="1.951" rx="1.951" ry="1.951" transform="translate(15.645 23.624)" fill="#ffcd00"/><path d="M98.577,267.526v1.763H88v-1.763A3.526,3.526,0,0,1,91.526,264h3.526A3.526,3.526,0,0,1,98.577,267.526Z" transform="translate(-80.067 -236.676)" fill="#f072ae"/><path d="M98.577,123.526v1.763H88v-1.763A3.526,3.526,0,0,1,91.526,120h3.526A3.526,3.526,0,0,1,98.577,123.526Z" transform="translate(-80.067 -108.541)" fill="#ffde55"/><path d="M117.288,232v.881a2.644,2.644,0,1,1-5.288,0V232Z" transform="translate(-101.423 -208.202)" fill="#ffc477"/><path d="M117.288,88v.881a2.644,2.644,0,1,1-5.288,0V88Z" transform="translate(-101.423 -80.067)" fill="#ffc477"/><ellipse cx="1.951" cy="1.951" rx="1.951" ry="1.951" transform="translate(6.866 23.624)" fill="#ffcd00"/><path d="M431.051,312v3.526a3.526,3.526,0,0,1-3.526,3.526H424a3.526,3.526,0,0,0,3.526-3.526V312Z" transform="translate(-379.048 -279.388)" fill="#787680"/><path d="M325.288,441.763v3.526h-3.526v-3.526A1.768,1.768,0,0,0,320,440h3.526A1.768,1.768,0,0,1,325.288,441.763Z" transform="translate(-286.507 -393.285)" fill="#787680"/><path d="M264,376h3.526v7.051H264Z" transform="translate(-236.676 -336.336)" fill="#acabb1"/><path d="M134.17,123.526v1.763h-2.644v-1.763A3.526,3.526,0,0,0,128,120h2.644A3.526,3.526,0,0,1,134.17,123.526Z" transform="translate(-115.66 -108.541)" fill="#ebbf00"/><path d="M134.17,267.526v1.763h-2.644v-1.763A3.526,3.526,0,0,0,128,264h2.644A3.526,3.526,0,0,1,134.17,267.526Z" transform="translate(-115.66 -236.676)" fill="#ea348b"/><path d="M127.966,58.644v1.763A2.644,2.644,0,0,1,124,62.7a2.644,2.644,0,0,0,1.322-2.292V58.644a2.638,2.638,0,0,0-.776-1.869,2.906,2.906,0,0,0-.546-.423,2.647,2.647,0,0,1,3.966,2.292Z" transform="translate(-112.101 -51.593)" fill="#ffa733"/><path d="M127.966,202.644v1.763A2.644,2.644,0,0,1,124,206.7a2.644,2.644,0,0,0,1.322-2.292v-1.763a2.638,2.638,0,0,0-.776-1.869,2.906,2.906,0,0,0-.546-.423,2.647,2.647,0,0,1,3.966,2.292Z" transform="translate(-112.101 -179.727)" fill="#ffa733"/><path d="M117.288,202.644v.881H112v-.881a2.644,2.644,0,0,1,5.288,0Z" transform="translate(-101.423 -179.727)" fill="#ffcd00"/><path d="M117.288,58.644v.881H112v-.881a2.644,2.644,0,1,1,5.288,0Z" transform="translate(-101.423 -51.593)" fill="#ffcd00"/><path d="M127.966,58.644v.881h-2.644v-.881a2.638,2.638,0,0,0-.776-1.869,2.906,2.906,0,0,0-.546-.423,2.647,2.647,0,0,1,3.966,2.292Z" transform="translate(-112.101 -51.593)" fill="#ebbf00"/><path d="M127.966,202.644v.881h-2.644v-.881a2.638,2.638,0,0,0-.776-1.869,2.906,2.906,0,0,0-.546-.423,2.647,2.647,0,0,1,3.966,2.292Z" transform="translate(-112.101 -179.727)" fill="#ebbf00"/><path d="M64.477,16H20.407A4.407,4.407,0,0,0,16,20.407V52.138a4.407,4.407,0,0,0,4.407,4.407H37.154v5.288H31.865a2.652,2.652,0,0,0-2.644,2.644V68a.881.881,0,0,0,.881.881H54.782A.881.881,0,0,0,55.663,68V64.477a2.652,2.652,0,0,0-2.644-2.644H47.731V56.545H64.477a4.407,4.407,0,0,0,4.407-4.407V20.407A4.407,4.407,0,0,0,64.477,16ZM17.763,20.407a2.652,2.652,0,0,1,2.644-2.644H41.561v14.1h-6.17v-.881a4.407,4.407,0,0,0-3.235-4.231,3.5,3.5,0,0,0,.591-1.939V23.051a3.526,3.526,0,1,0-7.051,0v1.763a3.5,3.5,0,0,0,.591,1.939,4.407,4.407,0,0,0-3.235,4.231v.881H17.763Zm13.221,4.407a1.763,1.763,0,1,1-3.526,0Zm-3.526-1.763a1.763,1.763,0,1,1,3.526,0Zm3.526,5.288a2.652,2.652,0,0,1,2.644,2.644v.881H24.814v-.881a2.652,2.652,0,0,1,2.644-2.644ZM17.763,33.628h23.8v14.1h-6.17v-.881a4.362,4.362,0,0,0-1-2.768,2.635,2.635,0,0,0-1.475-5.06q-.083.024-.164.054v-.159a3.526,3.526,0,1,0-7.051,0v.159a2.635,2.635,0,0,0-1.8,4.953q.081.03.164.054a4.363,4.363,0,0,0-1,2.768v.881H17.763Zm7.051,13.221a2.652,2.652,0,0,1,2.644-2.644h3.526a2.652,2.652,0,0,1,2.644,2.644v.881H24.814Zm-.881-5.288a.881.881,0,1,1,.881.881A.881.881,0,0,1,23.933,41.561Zm7.051-.881a1.763,1.763,0,1,1-3.526,0Zm-3.526-1.763a1.763,1.763,0,1,1,3.526,0Zm5.288,2.644a.881.881,0,1,1,.881.881A.881.881,0,0,1,32.747,41.561ZM53.019,63.6a.881.881,0,0,1,.881.881v2.644H30.984V64.477a.881.881,0,0,1,.881-.881Zm-14.1-1.763V56.545h7.051v5.288Zm28.2-9.7a2.652,2.652,0,0,1-2.644,2.644H20.407a2.652,2.652,0,0,1-2.644-2.644V49.493H67.121Zm-9.7-7.933a2.652,2.652,0,0,1,2.644,2.644v.881H51.256v-.881A2.652,2.652,0,0,1,53.9,44.205ZM53.9,40.679V38.917a1.763,1.763,0,1,1,3.526,0v1.763a1.763,1.763,0,1,1-3.526,0Zm13.221,7.051H61.833v-.881A4.407,4.407,0,0,0,58.6,42.618a3.5,3.5,0,0,0,.591-1.939V38.917a3.526,3.526,0,1,0-7.051,0v1.763a3.5,3.5,0,0,0,.591,1.939,4.407,4.407,0,0,0-3.235,4.231v.881h-6.17v-14.1h23.8Zm-9.7-19.391a2.652,2.652,0,0,1,2.644,2.644v.881H51.256v-.881A2.652,2.652,0,0,1,53.9,28.34ZM53.9,24.814V23.051a1.763,1.763,0,1,1,3.526,0v1.763a1.763,1.763,0,1,1-3.526,0Zm13.221,7.051H61.833v-.881A4.407,4.407,0,0,0,58.6,26.753a3.5,3.5,0,0,0,.591-1.939V23.051a3.526,3.526,0,1,0-7.051,0v1.763a3.5,3.5,0,0,0,.591,1.939,4.407,4.407,0,0,0-3.235,4.231v.881h-6.17v-14.1H64.477a2.652,2.652,0,0,1,2.644,2.644Z" transform="translate(-16 -16)"/><path d="M432,336h1.763v1.763H432Z" transform="translate(-386.167 -300.743)"/><path d="M400,336h1.763v1.763H400Z" transform="translate(-357.693 -300.743)"/><path d="M216,48h1.763v1.763H216Z" transform="translate(-193.965 -44.474)"/><path d="M216,192h1.763v1.763H216Z" transform="translate(-193.965 -172.609)"/><path d="M448,48h1.763v1.763H448Z" transform="translate(-400.404 -44.474)"/><path d="M448,192h1.763v1.763H448Z" transform="translate(-400.404 -172.609)"/></g></g></svg>