<svg xmlns="http://www.w3.org/2000/svg" width="88.962" height="110.394" viewBox="0 0 88.962 110.394"><g transform="translate(-598.217 -107.903)"><path d="M685.562,209.535V116.664a7.144,7.144,0,0,0-7.144-7.143h-71.44a7.144,7.144,0,0,0-7.144,7.143v92.871a7.144,7.144,0,0,0,7.144,7.144h71.44a7.144,7.144,0,0,0,7.144-7.143Z" fill="#e9efff"/><path d="M678.418,109.521H673.46a7.144,7.144,0,0,1,7.143,7.143v92.871a7.144,7.144,0,0,1-7.144,7.144h4.959a7.144,7.144,0,0,0,7.144-7.144V116.664A7.144,7.144,0,0,0,678.418,109.521Z" fill="#d3dcfb"/><path d="M606.978,216.679h71.44a7.144,7.144,0,0,0,7.144-7.143h0V130.952H599.834v78.583a7.144,7.144,0,0,0,7.144,7.144Z" fill="#ff6b00"/><circle cx="3.571" cy="3.571" r="3.571" transform="translate(606.982 116.674)" fill="#fd3d54"/><circle cx="3.572" cy="3.572" r="3.572" transform="translate(621.259 116.666)" fill="#89e56a"/><circle cx="3.572" cy="3.572" r="3.572" transform="translate(635.548 116.669)" fill="#ffc55e"/><path d="M676.693,166.672H608.7a1.725,1.725,0,0,1-1.725-1.725V146.965a1.725,1.725,0,0,1,1.725-1.725h67.99a1.725,1.725,0,0,1,1.725,1.725v17.982A1.726,1.726,0,0,1,676.693,166.672Z" fill="#e9efff"/><path d="M676.693,202.392H608.7a1.726,1.726,0,0,1-1.725-1.725V182.685a1.725,1.725,0,0,1,1.725-1.725h67.99a1.725,1.725,0,0,1,1.725,1.725v17.982A1.727,1.727,0,0,1,676.693,202.392Z" fill="#e9efff"/><path d="M680.6,130.952v78.583a7.144,7.144,0,0,1-7.144,7.144h4.959a7.144,7.144,0,0,0,7.144-7.144V130.952Z" fill="#c14e00"/><path d="M608.7,145.24a1.725,1.725,0,0,0-1.725,1.725v17.982a1.725,1.725,0,0,0,1.725,1.725H628.41V145.24Z" fill="#ffc55e"/><path d="M676.693,145.24h-4.959a1.725,1.725,0,0,1,1.725,1.725v17.982a1.725,1.725,0,0,1-1.725,1.725h4.959a1.725,1.725,0,0,0,1.725-1.725V146.965A1.725,1.725,0,0,0,676.693,145.24Z" fill="#d3dcfb"/><path d="M608.7,180.96a1.725,1.725,0,0,0-1.725,1.725v17.982a1.726,1.726,0,0,0,1.725,1.725H628.41V180.96Z" fill="#ffc55e"/><path d="M676.693,180.96h-4.959a1.725,1.725,0,0,1,1.725,1.725v17.982a1.726,1.726,0,0,1-1.725,1.725h4.959a1.726,1.726,0,0,0,1.725-1.725V182.685a1.725,1.725,0,0,0-1.725-1.725Z" fill="#d3dcfb"/><path d="M667.075,196.012l-8.215-.747A1.709,1.709,0,0,0,657,196.812a1.788,1.788,0,0,0,0,.31l.747,8.214a1.709,1.709,0,0,0,2.911,1.054,1.71,1.71,0,0,1,2.417,0l2.635,2.635a1.71,1.71,0,0,0,2.417,0l2.634-2.635a1.708,1.708,0,0,0,0-2.417h0l-2.634-2.635a1.708,1.708,0,0,1,0-2.417,1.709,1.709,0,0,0-1.054-2.91Z" fill="#d3dcfb"/><path d="M678.418,107.9h-71.44a8.772,8.772,0,0,0-8.761,8.761v92.871a8.772,8.772,0,0,0,8.761,8.762h71.44a8.772,8.772,0,0,0,8.761-8.762V116.664A8.772,8.772,0,0,0,678.418,107.9Zm-71.44,3.235h71.44a5.533,5.533,0,0,1,5.527,5.526v12.671H601.452V116.664A5.531,5.531,0,0,1,606.978,111.138Zm71.44,103.924h-71.44a5.532,5.532,0,0,1-5.526-5.527V132.569h82.493v76.966A5.533,5.533,0,0,1,678.418,215.062Z"/><path d="M610.55,125.425a5.189,5.189,0,1,0-5.189-5.189h0A5.194,5.194,0,0,0,610.55,125.425Zm0-7.144a1.955,1.955,0,1,1-1.955,1.955h0a1.959,1.959,0,0,1,1.955-1.955Z"/><path d="M624.838,125.425a5.189,5.189,0,1,0-5.189-5.188A5.189,5.189,0,0,0,624.838,125.425Zm0-7.144a1.955,1.955,0,1,1-1.955,1.955h0a1.958,1.958,0,0,1,1.955-1.955Z"/><path d="M639.126,125.425a5.189,5.189,0,1,0-5.189-5.189h0A5.2,5.2,0,0,0,639.126,125.425Zm0-7.144a1.955,1.955,0,1,1-1.955,1.955h0a1.958,1.958,0,0,1,1.955-1.955Z"/><path d="M676.693,143.623H608.7a3.345,3.345,0,0,0-3.342,3.342v17.982a3.345,3.345,0,0,0,3.342,3.342h67.99a3.345,3.345,0,0,0,3.342-3.342V146.965A3.345,3.345,0,0,0,676.693,143.623Zm-68.1,21.324V146.965a.108.108,0,0,1,.108-.108h18.09v18.2H608.7A.109.109,0,0,1,608.595,164.947Zm68.206,0a.109.109,0,0,1-.108.108H630.027v-18.2h46.666a.108.108,0,0,1,.108.108Z"/><path d="M619.48,154.339h-3.572a1.617,1.617,0,1,0,0,3.234h3.572a1.617,1.617,0,1,0,0-3.234Z"/><path d="M635.554,154H642.7a1.617,1.617,0,0,0,0-3.234h-7.144a1.617,1.617,0,0,0,0,3.234Z"/><path d="M656.986,157.911H635.554a1.617,1.617,0,0,0,0,3.234h21.432a1.617,1.617,0,0,0,0-3.234Z"/><path d="M671.274,157.911H664.13a1.617,1.617,0,0,0,0,3.234h7.144a1.617,1.617,0,0,0,0-3.234Z"/><path d="M676.632,179.343H608.764a3.407,3.407,0,0,0-3.4,3.4V200.6a3.408,3.408,0,0,0,3.4,3.4h47.241l.134,1.474a3.326,3.326,0,0,0,5.664,2.051.092.092,0,0,1,.13,0l2.635,2.635a3.33,3.33,0,0,0,4.7,0l2.635-2.635a3.316,3.316,0,0,0,.758-3.525h3.968a3.407,3.407,0,0,0,3.4-3.4v-17.86a3.406,3.406,0,0,0-3.4-3.4Zm-68.037,21.263v-17.86a.17.17,0,0,1,.169-.169h18.029v18.2H608.764a.171.171,0,0,1-.169-.169Zm61.025,4.641-2.635,2.635a.092.092,0,0,1-.129,0l-2.635-2.635a3.33,3.33,0,0,0-4.7,0,.092.092,0,0,1-.13,0,.094.094,0,0,1-.026-.057l-.747-8.214a.091.091,0,0,1,.083-.1.048.048,0,0,1,.017,0l8.215.746a.092.092,0,0,1,.083.1.088.088,0,0,1-.027.056,3.33,3.33,0,0,0,0,4.7l2.635,2.634a.094.094,0,0,1,0,.13Zm7.18-4.641a.17.17,0,0,1-.169.169h-6.78l-.579-.579a.094.094,0,0,1,0-.13,3.29,3.29,0,0,0,.863-3.2h1.138a1.618,1.618,0,0,0,0-3.235h-5.358a1.609,1.609,0,0,0-1.2.543l-5.705-.518a3.326,3.326,0,0,0-3.613,3.011,3.372,3.372,0,0,0,0,.6l.319,3.507H630.027v-18.2h46.6a.169.169,0,0,1,.169.169v17.858Z"/><path d="M619.48,190.059h-3.572a1.617,1.617,0,1,0,0,3.234h3.572a1.617,1.617,0,1,0,0-3.234Z"/><path d="M635.554,189.721H642.7a1.618,1.618,0,0,0,0-3.235h-7.144a1.618,1.618,0,0,0,0,3.235Z"/><path d="M653.414,193.631h-17.86a1.617,1.617,0,0,0,0,3.234h17.86a1.617,1.617,0,0,0,0-3.234Z"/></g></svg>