<svg xmlns="http://www.w3.org/2000/svg" width="117.174" height="110.249" viewBox="0 0 117.174 110.249"><g transform="translate(-326 -2418)"><g transform="translate(326 2418)"><circle cx="44.979" cy="44.979" r="44.979" transform="translate(13.608 10.146)" fill="#ffaf0d"/><rect width="117.174" height="110.249" fill="none"/></g><g transform="translate(358 2448)" style="mix-blend-mode:hard-light;isolation:isolate"><path d="M305.356,184.829h-7.051a25.975,25.975,0,0,0-.705-6.17,12.418,12.418,0,0,0,4.046-2.644A12.279,12.279,0,0,1,305.356,184.829Z" transform="translate(-266.575 -158.387)" fill="#2488ff"/><path d="M298.305,256.015h7.051a12.279,12.279,0,0,1-3.711,8.814,12.421,12.421,0,0,0-4.046-2.644A25.974,25.974,0,0,0,298.305,256.015Z" transform="translate(-266.575 -229.573)" fill="#57a4ff"/><path d="M218.573,206.185H208a25.974,25.974,0,0,1,.705-6.17,12.357,12.357,0,0,0,9.167,0,25.974,25.974,0,0,1,.705,6.17Z" transform="translate(-186.842 -179.742)" fill="#57a4ff"/><path d="M208,256.015h10.577a25.973,25.973,0,0,1-.705,6.17,12.358,12.358,0,0,0-9.167,0,25.973,25.973,0,0,1-.705-6.17Z" transform="translate(-186.842 -229.573)" fill="#2488ff"/><path d="M256,144.015a12.314,12.314,0,0,1,8.629,3.526,12.416,12.416,0,0,1-4.046,2.644C259.667,146.492,257.957,144.015,256,144.015Z" transform="translate(-229.558 -129.912)" fill="#57a4ff"/><path d="M260.583,312.015a12.421,12.421,0,0,1,4.046,2.644A12.313,12.313,0,0,1,256,318.185C257.957,318.185,259.667,315.708,260.583,312.015Z" transform="translate(-229.558 -279.403)" fill="#2488ff"/><path d="M218.983,144.015c1.957,0,3.667,2.477,4.583,6.17a12.357,12.357,0,0,1-9.167,0C215.317,146.492,217.027,144.015,218.983,144.015Z" transform="translate(-192.541 -129.912)" fill="#2488ff"/><path d="M223.567,304.9c-.917,3.693-2.627,6.17-4.583,6.17s-3.667-2.477-4.583-6.17a12.358,12.358,0,0,1,9.167,0Z" transform="translate(-192.541 -272.285)" fill="#57a4ff"/><path d="M186.309,144.015c-1.957,0-3.667,2.477-4.583,6.17a12.417,12.417,0,0,1-4.046-2.644A12.314,12.314,0,0,1,186.309,144.015Z" transform="translate(-159.867 -129.912)" fill="#57a4ff"/><path d="M181.726,312.015c.917,3.693,2.627,6.17,4.583,6.17a12.313,12.313,0,0,1-8.629-3.526A12.421,12.421,0,0,1,181.726,312.015Z" transform="translate(-159.867 -279.403)" fill="#2488ff"/><path d="M147.711,176.015a12.417,12.417,0,0,0,4.046,2.644,25.975,25.975,0,0,0-.705,6.17H144A12.279,12.279,0,0,1,147.711,176.015Z" transform="translate(-129.897 -158.387)" fill="#2488ff"/><path d="M151.756,262.185a12.421,12.421,0,0,0-4.046,2.644A12.279,12.279,0,0,1,144,256.015h7.051A25.974,25.974,0,0,0,151.756,262.185Z" transform="translate(-129.897 -229.573)" fill="#57a4ff"/><ellipse cx="8.778" cy="8.778" rx="8.778" ry="8.778" transform="translate(0.975 0.467)" fill="#bdfdff"/><path d="M98.648,32.815A8.814,8.814,0,0,1,88.08,41.453a8.818,8.818,0,0,0,0-17.276,8.814,8.814,0,0,1,10.568,8.638Z" transform="translate(-80.139 -23.119)" fill="#00e7f0"/><path d="M66.577,123.541V125.3h-.009a8.725,8.725,0,0,1-5.28,1.763c-.3,0-.591-.018-.881-.044a8.744,8.744,0,0,1-3.526-1.137A8.444,8.444,0,0,1,56,125.3v-1.763a3.526,3.526,0,0,1,3.526-3.526h3.526A3.526,3.526,0,0,1,66.577,123.541Z" transform="translate(-51.593 -108.556)" fill="#91dc5a"/><path d="M85.288,58.659v1.763a2.644,2.644,0,1,1-5.288,0V58.659a2.644,2.644,0,1,1,5.288,0Z" transform="translate(-72.949 -51.608)" fill="#ffc477"/><path d="M98.468,123.541V125.3h-.009a8.725,8.725,0,0,1-5.28,1.763c-.3,0-.591-.018-.881-.044-.15-.018-.308-.035-.458-.062a8.594,8.594,0,0,0,3.975-1.657h.009v-1.763a3.526,3.526,0,0,0-3.526-3.526h2.644a3.526,3.526,0,0,1,3.526,3.526Z" transform="translate(-83.484 -108.556)" fill="#5eac24"/><path d="M95.966,58.659v1.763A2.644,2.644,0,0,1,92,62.714a2.644,2.644,0,0,0,1.322-2.292V58.659a2.638,2.638,0,0,0-.776-1.869A2.915,2.915,0,0,0,92,56.368a2.647,2.647,0,0,1,3.966,2.292Z" transform="translate(-83.627 -51.608)" fill="#ffa733"/><ellipse cx="8.778" cy="8.778" rx="8.778" ry="8.778" transform="translate(34.138 0.467)" fill="#bdfdff"/><path d="M402.648,32.815a8.814,8.814,0,0,1-10.568,8.638,8.819,8.819,0,0,0,0-17.276,8.814,8.814,0,0,1,10.568,8.638Z" transform="translate(-350.645 -23.119)" fill="#00e7f0"/><path d="M370.577,123.541V125.3h-.009a8.725,8.725,0,0,1-5.28,1.763c-.3,0-.591-.018-.881-.044a8.743,8.743,0,0,1-3.526-1.137A8.442,8.442,0,0,1,360,125.3v-1.763a3.526,3.526,0,0,1,3.526-3.526h3.526A3.526,3.526,0,0,1,370.577,123.541Z" transform="translate(-322.1 -108.556)" fill="#ffde55"/><path d="M389.288,58.659v1.763a2.644,2.644,0,1,1-5.288,0V58.659a2.644,2.644,0,1,1,5.288,0Z" transform="translate(-343.455 -51.608)" fill="#ffc477"/><path d="M402.468,123.541V125.3h-.009a8.725,8.725,0,0,1-5.28,1.763c-.3,0-.591-.018-.881-.044-.15-.018-.308-.035-.458-.062a8.593,8.593,0,0,0,3.975-1.657h.009v-1.763a3.526,3.526,0,0,0-3.526-3.526h2.644a3.526,3.526,0,0,1,3.526,3.526Z" transform="translate(-353.991 -108.556)" fill="#ebbf00"/><path d="M399.966,58.659v1.763A2.644,2.644,0,0,1,396,62.714a2.644,2.644,0,0,0,1.322-2.292V58.659a2.638,2.638,0,0,0-.776-1.869,2.915,2.915,0,0,0-.546-.423,2.647,2.647,0,0,1,3.966,2.292Z" transform="translate(-354.133 -51.608)" fill="#ffa733"/><ellipse cx="8.778" cy="8.778" rx="8.778" ry="8.778" transform="translate(0.975 34.605)" fill="#bdfdff"/><path d="M98.648,336.815a8.814,8.814,0,0,1-10.568,8.638,8.818,8.818,0,0,0,0-17.276,8.814,8.814,0,0,1,10.568,8.638Z" transform="translate(-80.139 -293.626)" fill="#00e7f0"/><path d="M66.577,427.541V429.3h-.009a8.725,8.725,0,0,1-5.28,1.763c-.3,0-.591-.018-.881-.044a8.744,8.744,0,0,1-3.526-1.137A8.449,8.449,0,0,1,56,429.3v-1.763a3.526,3.526,0,0,1,3.526-3.526h3.526A3.526,3.526,0,0,1,66.577,427.541Z" transform="translate(-51.593 -379.063)" fill="#ff3051"/><path d="M85.288,362.659v1.763a2.644,2.644,0,1,1-5.288,0v-1.763a2.644,2.644,0,1,1,5.288,0Z" transform="translate(-72.949 -322.114)" fill="#ffc477"/><path d="M98.468,427.541V429.3h-.009a8.725,8.725,0,0,1-5.28,1.763c-.3,0-.591-.018-.881-.044-.15-.018-.308-.035-.458-.062a8.594,8.594,0,0,0,3.975-1.657h.009v-1.763a3.526,3.526,0,0,0-3.526-3.526h2.644A3.526,3.526,0,0,1,98.468,427.541Z" transform="translate(-83.484 -379.063)" fill="#cd2a00"/><path d="M95.966,362.659v1.763A2.644,2.644,0,0,1,92,366.714a2.644,2.644,0,0,0,1.322-2.292v-1.763a2.638,2.638,0,0,0-.776-1.869,2.918,2.918,0,0,0-.546-.423,2.647,2.647,0,0,1,3.966,2.292Z" transform="translate(-83.627 -322.114)" fill="#ffa733"/><ellipse cx="8.778" cy="8.778" rx="8.778" ry="8.778" transform="translate(34.138 34.605)" fill="#bdfdff"/><path d="M402.648,336.815a8.814,8.814,0,0,1-10.568,8.638,8.819,8.819,0,0,0,0-17.276,8.814,8.814,0,0,1,10.568,8.638Z" transform="translate(-350.645 -293.626)" fill="#00e7f0"/><path d="M370.577,427.541V429.3h-.009a8.725,8.725,0,0,1-5.28,1.763c-.3,0-.591-.018-.881-.044a8.744,8.744,0,0,1-3.526-1.137A8.446,8.446,0,0,1,360,429.3v-1.763a3.526,3.526,0,0,1,3.526-3.526h3.526A3.526,3.526,0,0,1,370.577,427.541Z" transform="translate(-322.1 -379.063)" fill="#57a4ff"/><path d="M389.288,362.659v1.763a2.644,2.644,0,1,1-5.288,0v-1.763a2.644,2.644,0,1,1,5.288,0Z" transform="translate(-343.455 -322.114)" fill="#ffc477"/><path d="M402.468,427.541V429.3h-.009a8.726,8.726,0,0,1-5.28,1.763c-.3,0-.591-.018-.881-.044-.15-.018-.308-.035-.458-.062a8.594,8.594,0,0,0,3.975-1.657h.009v-1.763a3.526,3.526,0,0,0-3.526-3.526h2.644a3.526,3.526,0,0,1,3.526,3.526Z" transform="translate(-353.991 -379.063)" fill="#006df0"/><path d="M399.966,362.659v1.763A2.644,2.644,0,0,1,396,366.714a2.644,2.644,0,0,0,1.322-2.292v-1.763a2.638,2.638,0,0,0-.776-1.869,2.918,2.918,0,0,0-.546-.423,2.647,2.647,0,0,1,3.966,2.292Z" transform="translate(-354.133 -322.114)" fill="#ffa733"/><path d="M158.467,139.8a13.221,13.221,0,1,0,3.975,9.449,13.221,13.221,0,0,0-3.975-9.449Zm2.168,8.567h-5.262a27.258,27.258,0,0,0-.546-4.786,13.7,13.7,0,0,0,2.962-1.913A11.264,11.264,0,0,1,160.636,148.369Zm-4.107-7.933a11.621,11.621,0,0,1-2.142,1.4,12.958,12.958,0,0,0-1.569-3.455A11.47,11.47,0,0,1,156.528,140.436Zm-11.7,7.933a26.268,26.268,0,0,1,.45-4.134,13.066,13.066,0,0,0,7.88,0,26.268,26.268,0,0,1,.45,4.134Zm8.779,1.763a26.265,26.265,0,0,1-.45,4.134,13.067,13.067,0,0,0-7.88,0,26.265,26.265,0,0,1-.45-4.134Zm-4.389-12.34c1.278,0,2.653,1.789,3.517,4.724a11.244,11.244,0,0,1-7.034,0c.864-2.935,2.239-4.724,3.517-4.724Zm-3.6.591a12.958,12.958,0,0,0-1.569,3.455,11.62,11.62,0,0,1-2.142-1.4,11.47,11.47,0,0,1,3.711-2.054Zm-4.971,3.288a13.705,13.705,0,0,0,2.962,1.913,27.258,27.258,0,0,0-.546,4.786h-5.262A11.263,11.263,0,0,1,140.654,141.67Zm-2.847,8.462h5.262a27.256,27.256,0,0,0,.546,4.786,13.713,13.713,0,0,0-2.962,1.913A11.263,11.263,0,0,1,137.807,150.132Zm4.116,7.933a11.276,11.276,0,0,1,2.133-1.4,12.955,12.955,0,0,0,1.569,3.455A11.334,11.334,0,0,1,141.923,158.064Zm7.3,2.644c-1.278,0-2.653-1.789-3.517-4.724a11.246,11.246,0,0,1,7.034,0C151.874,158.919,150.5,160.708,149.221,160.708Zm3.6-.591a12.956,12.956,0,0,0,1.569-3.455,11.621,11.621,0,0,1,2.142,1.4A11.467,11.467,0,0,1,152.817,160.118Zm4.971-3.288a13.713,13.713,0,0,0-2.962-1.913,27.256,27.256,0,0,0,.546-4.786h5.262a11.263,11.263,0,0,1-2.847,6.7Z" transform="translate(-122.779 -122.808)"/><path d="M216,88.015h1.763v1.763H216Z" transform="translate(-193.965 -80.082)"/><path d="M248,88.015h1.763v1.763H248Z" transform="translate(-222.439 -80.082)"/><path d="M280,88.015h1.763v1.763H280Z" transform="translate(-250.914 -80.082)"/><path d="M216,408.015h1.763v1.763H216Z" transform="translate(-193.965 -364.826)"/><path d="M248,408.015h1.763v1.763H248Z" transform="translate(-222.439 -364.826)"/><path d="M280,408.015h1.763v1.763H280Z" transform="translate(-250.914 -364.826)"/><path d="M88,216.015h1.763v1.763H88Z" transform="translate(-80.067 -193.98)"/><path d="M88,248.015h1.763v1.763H88Z" transform="translate(-80.067 -222.454)"/><path d="M88,280.015h1.763v1.763H88Z" transform="translate(-80.067 -250.928)"/><path d="M408,216.015h1.763v1.763H408Z" transform="translate(-364.811 -193.98)"/><path d="M408,248.015h1.763v1.763H408Z" transform="translate(-364.811 -222.454)"/><path d="M408,280.015h1.763v1.763H408Z" transform="translate(-364.811 -250.928)"/><path d="M25.7,16.015a9.7,9.7,0,1,0,9.7,9.7A9.7,9.7,0,0,0,25.7,16.015ZM30.1,32.3a7.918,7.918,0,0,1-8.814,0V31a2.652,2.652,0,0,1,2.644-2.644h3.526A2.652,2.652,0,0,1,30.1,31Zm-6.17-7.474V23.066a1.763,1.763,0,1,1,3.526,0v1.763a1.763,1.763,0,1,1-3.526,0Zm7.906,5.9a4.407,4.407,0,0,0-3.208-3.958,3.5,3.5,0,0,0,.591-1.939V23.066a3.526,3.526,0,1,0-7.051,0v1.763a3.5,3.5,0,0,0,.591,1.939,4.407,4.407,0,0,0-3.208,3.958,7.933,7.933,0,1,1,12.287,0Z" transform="translate(-16 -16.015)"/><path d="M329.7,16.015a9.7,9.7,0,1,0,9.7,9.7A9.7,9.7,0,0,0,329.7,16.015ZM334.1,32.3a7.918,7.918,0,0,1-8.814,0V31a2.652,2.652,0,0,1,2.644-2.644h3.526A2.652,2.652,0,0,1,334.1,31Zm-6.17-7.474V23.066a1.763,1.763,0,0,1,3.526,0v1.763a1.763,1.763,0,0,1-3.526,0Zm7.906,5.9a4.407,4.407,0,0,0-3.208-3.958,3.5,3.5,0,0,0,.591-1.939V23.066a3.526,3.526,0,0,0-7.051,0v1.763a3.5,3.5,0,0,0,.591,1.939,4.407,4.407,0,0,0-3.208,3.958,7.933,7.933,0,1,1,12.287,0Z" transform="translate(-286.507 -16.015)"/><path d="M25.7,320.015a9.7,9.7,0,1,0,9.7,9.7A9.7,9.7,0,0,0,25.7,320.015ZM30.1,336.3a7.918,7.918,0,0,1-8.814,0V335a2.652,2.652,0,0,1,2.644-2.644h3.526A2.652,2.652,0,0,1,30.1,335Zm-6.17-7.474v-1.763a1.763,1.763,0,1,1,3.526,0v1.763a1.763,1.763,0,1,1-3.526,0Zm7.906,5.9a4.407,4.407,0,0,0-3.208-3.958,3.5,3.5,0,0,0,.591-1.939v-1.763a3.526,3.526,0,1,0-7.051,0v1.763a3.5,3.5,0,0,0,.591,1.939,4.407,4.407,0,0,0-3.208,3.958,7.933,7.933,0,1,1,12.287,0Z" transform="translate(-16 -286.521)"/><path d="M329.7,320.015a9.7,9.7,0,1,0,9.7,9.7A9.7,9.7,0,0,0,329.7,320.015ZM334.1,336.3a7.918,7.918,0,0,1-8.814,0V335a2.652,2.652,0,0,1,2.644-2.644h3.526A2.652,2.652,0,0,1,334.1,335Zm-6.17-7.474v-1.763a1.763,1.763,0,1,1,3.526,0v1.763a1.763,1.763,0,1,1-3.526,0Zm7.906,5.9a4.407,4.407,0,0,0-3.208-3.958,3.5,3.5,0,0,0,.591-1.939v-1.763a3.526,3.526,0,1,0-7.051,0v1.763a3.5,3.5,0,0,0,.591,1.939,4.407,4.407,0,0,0-3.208,3.958,7.933,7.933,0,1,1,12.287,0Z" transform="translate(-286.507 -286.521)"/></g></g></svg>